<?xml version="1.0" encoding="utf-8"?>
<!-- Generator: Adobe Illustrator 27.2.0, SVG Export Plug-In . SVG Version: 6.00 Build 0)  -->
<svg version="1.1" id="Layer_1" xmlns="http://www.w3.org/2000/svg" xmlns:xlink="http://www.w3.org/1999/xlink" x="0px" y="0px"
	 viewBox="0 0 140 139.6" style="enable-background:new 0 0 140 139.6;" xml:space="preserve">
<style type="text/css">
	.st0{fill:#F37321;}
	.st1{fill:#060708;}
</style>
<g>
	<polygon class="st0" points="27.5,-0.4 0,27 0,139.6 140,139.6 140,-0.4 	"/>
	<path d="M25.4,46.4c-0.6-0.7-1-1.4-1-2.4s0.3-1.7,1-2.3s1.4-1,2.4-1s1.7,0.3,2.4,1c0.6,0.7,1,1.4,1,2.3s-0.3,1.7-1,2.4
		s-1.4,1-2.4,1S26.1,47.1,25.4,46.4z M25.4,54.8c-0.6-0.7-1-1.4-1-2.4s0.3-1.7,1-2.4s1.4-1,2.4-1s1.7,0.3,2.4,1c0.6,0.7,1,1.4,1,2.4
		s-0.3,1.7-1,2.4s-1.4,1-2.4,1S26.1,55.4,25.4,54.8z M25.4,63.1c-0.6-0.7-1-1.4-1-2.4s0.3-1.7,1-2.4s1.4-1,2.4-1s1.7,0.3,2.4,1
		c0.6,0.7,1,1.4,1,2.4s-0.3,1.7-1,2.4s-1.4,1-2.4,1S26.1,63.8,25.4,63.1z M33.8,38.1c-0.6-0.7-1-1.4-1-2.4s0.3-1.7,1-2.4
		s1.4-1,2.4-1s1.7,0.3,2.4,1c0.6,0.7,1,1.4,1,2.4s-0.3,1.7-1,2.4s-1.4,1-2.4,1S34.4,38.8,33.8,38.1z M33.8,46.4
		c-0.6-0.7-1-1.4-1-2.4s0.3-1.7,1-2.3s1.4-1,2.4-1s1.7,0.3,2.4,1c0.6,0.7,1,1.4,1,2.3s-0.3,1.7-1,2.4s-1.4,1-2.4,1
		S34.4,47.1,33.8,46.4z M42.1,29.8c-0.6-0.7-1-1.4-1-2.4s0.3-1.7,1-2.4s1.4-1,2.4-1s1.7,0.3,2.3,1c0.6,0.7,1,1.4,1,2.4
		s-0.3,1.7-1,2.4s-1.4,1-2.3,1S42.8,30.4,42.1,29.8z M42.1,46.4c-0.6-0.7-1-1.4-1-2.4s0.3-1.7,1-2.3s1.4-1,2.4-1s1.7,0.3,2.3,1
		c0.6,0.7,1,1.4,1,2.3s-0.3,1.7-1,2.4s-1.4,1-2.3,1S42.8,47.1,42.1,46.4z M50.4,38.1c-0.6-0.7-1-1.4-1-2.4s0.3-1.7,1-2.4
		s1.4-1,2.4-1s1.7,0.3,2.4,1c0.6,0.7,1,1.4,1,2.4s-0.3,1.7-1,2.4s-1.4,1-2.4,1S51.1,38.8,50.4,38.1z M50.4,46.4
		c-0.6-0.7-1-1.4-1-2.4s0.3-1.7,1-2.3s1.4-1,2.4-1s1.7,0.3,2.4,1c0.6,0.7,1,1.4,1,2.3s-0.3,1.7-1,2.4s-1.4,1-2.4,1
		S51.1,47.1,50.4,46.4z M58.8,46.4c-0.6-0.7-1-1.4-1-2.4s0.3-1.7,1-2.3s1.4-1,2.4-1s1.7,0.3,2.4,1c0.6,0.7,1,1.4,1,2.3
		s-0.3,1.7-1,2.4s-1.4,1-2.4,1S59.4,47.1,58.8,46.4z M58.8,54.8c-0.6-0.7-1-1.4-1-2.4s0.3-1.7,1-2.4s1.4-1,2.4-1s1.7,0.3,2.4,1
		c0.6,0.7,1,1.4,1,2.4s-0.3,1.7-1,2.4s-1.4,1-2.4,1S59.4,55.4,58.8,54.8z M58.8,63.1c-0.6-0.7-1-1.4-1-2.4s0.3-1.7,1-2.4
		s1.4-1,2.4-1s1.7,0.3,2.4,1c0.6,0.7,1,1.4,1,2.4s-0.3,1.7-1,2.4s-1.4,1-2.4,1S59.4,63.8,58.8,63.1z"/>
	<path d="M76.5,29.8c-0.6-0.7-1-1.4-1-2.4s0.3-1.7,1-2.4s1.4-1,2.4-1s1.7,0.3,2.4,1c0.6,0.7,1,1.4,1,2.4s-0.3,1.7-1,2.4
		s-1.4,1-2.4,1S77.2,30.4,76.5,29.8z M76.5,38.1c-0.6-0.7-1-1.4-1-2.4s0.3-1.7,1-2.4s1.4-1,2.4-1s1.7,0.3,2.4,1c0.6,0.7,1,1.4,1,2.4
		s-0.3,1.7-1,2.4s-1.4,1-2.4,1S77.2,38.8,76.5,38.1z M76.5,46.4c-0.6-0.7-1-1.4-1-2.4s0.3-1.7,1-2.3s1.4-1,2.4-1s1.7,0.3,2.4,1
		c0.6,0.7,1,1.4,1,2.3s-0.3,1.7-1,2.4s-1.4,1-2.4,1S77.2,47.1,76.5,46.4z M76.5,54.8c-0.6-0.7-1-1.4-1-2.4s0.3-1.7,1-2.4
		s1.4-1,2.4-1s1.7,0.3,2.4,1c0.6,0.7,1,1.4,1,2.4s-0.3,1.7-1,2.4s-1.4,1-2.4,1S77.2,55.4,76.5,54.8z M76.5,63.1
		c-0.6-0.7-1-1.4-1-2.4s0.3-1.7,1-2.4s1.4-1,2.4-1s1.7,0.3,2.4,1c0.6,0.7,1,1.4,1,2.4s-0.3,1.7-1,2.4s-1.4,1-2.4,1
		S77.2,63.8,76.5,63.1z M84.9,38.1c-0.6-0.7-1-1.4-1-2.4s0.3-1.7,1-2.4s1.4-1,2.4-1s1.7,0.3,2.4,1c0.6,0.7,1,1.4,1,2.4
		s-0.3,1.7-1,2.4s-1.4,1-2.4,1S85.5,38.8,84.9,38.1z M93.2,46.4c-0.6-0.7-1-1.4-1-2.4s0.3-1.7,1-2.3s1.4-1,2.4-1s1.7,0.3,2.3,1
		c0.6,0.7,1,1.4,1,2.3s-0.3,1.7-1,2.4s-1.4,1-2.3,1S93.9,47.1,93.2,46.4z M101.5,38.1c-0.6-0.7-1-1.4-1-2.4s0.3-1.7,1-2.4
		s1.4-1,2.4-1s1.7,0.3,2.4,1c0.6,0.7,1,1.4,1,2.4s-0.3,1.7-1,2.4s-1.4,1-2.4,1S102.2,38.8,101.5,38.1z M109.9,29.8
		c-0.6-0.7-1-1.4-1-2.4s0.3-1.7,1-2.4s1.4-1,2.4-1s1.7,0.3,2.4,1c0.6,0.7,1,1.4,1,2.4s-0.3,1.7-1,2.4s-1.4,1-2.4,1
		S110.5,30.4,109.9,29.8z M109.9,38.1c-0.6-0.7-1-1.4-1-2.4s0.3-1.7,1-2.4s1.4-1,2.4-1s1.7,0.3,2.4,1c0.6,0.7,1,1.4,1,2.4
		s-0.3,1.7-1,2.4s-1.4,1-2.4,1S110.5,38.8,109.9,38.1z M109.9,46.4c-0.6-0.7-1-1.4-1-2.4s0.3-1.7,1-2.3s1.4-1,2.4-1s1.7,0.3,2.4,1
		c0.6,0.7,1,1.4,1,2.3s-0.3,1.7-1,2.4s-1.4,1-2.4,1S110.5,47.1,109.9,46.4z M109.9,54.8c-0.6-0.7-1-1.4-1-2.4s0.3-1.7,1-2.4
		s1.4-1,2.4-1s1.7,0.3,2.4,1c0.6,0.7,1,1.4,1,2.4s-0.3,1.7-1,2.4s-1.4,1-2.4,1S110.5,55.4,109.9,54.8z M109.9,63.1
		c-0.6-0.7-1-1.4-1-2.4s0.3-1.7,1-2.4s1.4-1,2.4-1s1.7,0.3,2.4,1c0.6,0.7,1,1.4,1,2.4s-0.3,1.7-1,2.4s-1.4,1-2.4,1
		S110.5,63.8,109.9,63.1z"/>
	<path d="M25.4,80.7c-0.6-0.7-1-1.4-1-2.4s0.3-1.7,1-2.4s1.4-1,2.4-1s1.7,0.3,2.4,1c0.6,0.7,1,1.4,1,2.4s-0.3,1.7-1,2.4
		s-1.4,1-2.4,1S26.1,81.4,25.4,80.7z M25.4,89.1c-0.6-0.7-1-1.4-1-2.4s0.3-1.7,1-2.4s1.4-1,2.4-1s1.7,0.3,2.4,1c0.6,0.7,1,1.4,1,2.4
		s-0.3,1.7-1,2.4s-1.4,1-2.4,1S26.1,89.7,25.4,89.1z M25.4,97.4c-0.6-0.7-1-1.4-1-2.4s0.3-1.7,1-2.3s1.4-1,2.4-1s1.7,0.3,2.4,1
		c0.6,0.7,1,1.4,1,2.3s-0.3,1.7-1,2.4s-1.4,1-2.4,1S26.1,98.1,25.4,97.4z M25.4,105.7c-0.6-0.7-1-1.4-1-2.4s0.3-1.7,1-2.4
		s1.4-1,2.4-1s1.7,0.3,2.4,1c0.6,0.7,1,1.4,1,2.4s-0.3,1.7-1,2.4s-1.4,1-2.4,1S26.1,106.4,25.4,105.7z M25.4,114.1
		c-0.6-0.7-1-1.4-1-2.4s0.3-1.7,1-2.4s1.4-1,2.4-1s1.7,0.3,2.4,1c0.6,0.7,1,1.4,1,2.4s-0.3,1.7-1,2.4s-1.4,1-2.4,1
		S26.1,114.7,25.4,114.1z M33.8,80.8c-0.6-0.7-1-1.4-1-2.4s0.3-1.7,1-2.4s1.4-1,2.4-1s1.7,0.3,2.4,1c0.6,0.7,1,1.4,1,2.4
		s-0.3,1.7-1,2.4s-1.4,1-2.4,1S34.4,81.4,33.8,80.8z M33.8,97.4c-0.6-0.7-1-1.4-1-2.4s0.3-1.7,1-2.3s1.4-1,2.4-1s1.7,0.3,2.4,1
		c0.6,0.7,1,1.4,1,2.3s-0.3,1.7-1,2.4s-1.4,1-2.4,1S34.4,98.1,33.8,97.4z M42.1,80.8c-0.6-0.7-1-1.4-1-2.4s0.3-1.7,1-2.4
		s1.4-1,2.4-1s1.7,0.3,2.3,1c0.6,0.7,1,1.4,1,2.4s-0.3,1.7-1,2.4s-1.4,1-2.3,1S42.8,81.4,42.1,80.8z M42.1,97.4
		c-0.6-0.7-1-1.4-1-2.4s0.3-1.7,1-2.3s1.4-1,2.4-1s1.7,0.3,2.3,1c0.6,0.7,1,1.4,1,2.3s-0.3,1.7-1,2.4s-1.4,1-2.3,1
		S42.8,98.1,42.1,97.4z M50.4,80.8c-0.6-0.7-1-1.4-1-2.4s0.3-1.7,1-2.4s1.4-1,2.4-1s1.7,0.3,2.4,1c0.6,0.7,1,1.4,1,2.4
		s-0.3,1.7-1,2.4s-1.4,1-2.4,1S51.1,81.4,50.4,80.8z M50.4,97.4c-0.6-0.7-1-1.4-1-2.4s0.3-1.7,1-2.3s1.4-1,2.4-1s1.7,0.3,2.4,1
		c0.6,0.7,1,1.4,1,2.3s-0.3,1.7-1,2.4s-1.4,1-2.4,1S51.1,98.1,50.4,97.4z M58.8,89.1c-0.6-0.7-1-1.4-1-2.4s0.3-1.7,1-2.4
		s1.4-1,2.4-1s1.7,0.3,2.4,1c0.6,0.7,1,1.4,1,2.4s-0.3,1.7-1,2.4s-1.4,1-2.4,1S59.4,89.7,58.8,89.1z"/>
	<path d="M76.5,80.7c-0.6-0.7-1-1.4-1-2.4s0.3-1.7,1-2.4s1.4-1,2.4-1s1.7,0.3,2.4,1c0.6,0.7,1,1.4,1,2.4s-0.3,1.7-1,2.4
		s-1.4,1-2.4,1S77.2,81.4,76.5,80.7z M76.5,89.1c-0.6-0.7-1-1.4-1-2.4s0.3-1.7,1-2.4s1.4-1,2.4-1s1.7,0.3,2.4,1c0.6,0.7,1,1.4,1,2.4
		s-0.3,1.7-1,2.4s-1.4,1-2.4,1S77.2,89.7,76.5,89.1z M76.5,97.4c-0.6-0.7-1-1.4-1-2.4s0.3-1.7,1-2.3s1.4-1,2.4-1s1.7,0.3,2.4,1
		c0.6,0.7,1,1.4,1,2.3s-0.3,1.7-1,2.4s-1.4,1-2.4,1S77.2,98.1,76.5,97.4z M76.5,105.7c-0.6-0.7-1-1.4-1-2.4s0.3-1.7,1-2.4
		s1.4-1,2.4-1s1.7,0.3,2.4,1c0.6,0.7,1,1.4,1,2.4s-0.3,1.7-1,2.4s-1.4,1-2.4,1S77.2,106.4,76.5,105.7z M76.5,114.1
		c-0.6-0.7-1-1.4-1-2.4s0.3-1.7,1-2.4s1.4-1,2.4-1s1.7,0.3,2.4,1c0.6,0.7,1,1.4,1,2.4s-0.3,1.7-1,2.4s-1.4,1-2.4,1
		S77.2,114.7,76.5,114.1z M84.9,97.4c-0.6-0.7-1-1.4-1-2.4s0.3-1.7,1-2.3s1.4-1,2.4-1s1.7,0.3,2.4,1c0.6,0.7,1,1.4,1,2.3
		s-0.3,1.7-1,2.4s-1.4,1-2.4,1S85.5,98.1,84.9,97.4z M93.2,97.4c-0.6-0.7-1-1.4-1-2.4s0.3-1.7,1-2.3s1.4-1,2.4-1s1.7,0.3,2.3,1
		c0.6,0.7,1,1.4,1,2.3s-0.3,1.7-1,2.4s-1.4,1-2.3,1S93.9,98.1,93.2,97.4z M101.5,97.4c-0.6-0.7-1-1.4-1-2.4s0.3-1.7,1-2.3
		s1.4-1,2.4-1s1.7,0.3,2.4,1c0.6,0.7,1,1.4,1,2.3s-0.3,1.7-1,2.4s-1.4,1-2.4,1S102.2,98.1,101.5,97.4z M109.9,80.7
		c-0.6-0.7-1-1.4-1-2.4s0.3-1.7,1-2.4s1.4-1,2.4-1s1.7,0.3,2.4,1c0.6,0.7,1,1.4,1,2.4s-0.3,1.7-1,2.4s-1.4,1-2.4,1
		S110.5,81.4,109.9,80.7z M109.9,89.1c-0.6-0.7-1-1.4-1-2.4s0.3-1.7,1-2.4s1.4-1,2.4-1s1.7,0.3,2.4,1c0.6,0.7,1,1.4,1,2.4
		s-0.3,1.7-1,2.4s-1.4,1-2.4,1S110.5,89.7,109.9,89.1z M109.9,97.4c-0.6-0.7-1-1.4-1-2.4s0.3-1.7,1-2.3s1.4-1,2.4-1s1.7,0.3,2.4,1
		c0.6,0.7,1,1.4,1,2.3s-0.3,1.7-1,2.4s-1.4,1-2.4,1S110.5,98.1,109.9,97.4z M109.9,105.7c-0.6-0.7-1-1.4-1-2.4s0.3-1.7,1-2.4
		s1.4-1,2.4-1s1.7,0.3,2.4,1c0.6,0.7,1,1.4,1,2.4s-0.3,1.7-1,2.4s-1.4,1-2.4,1S110.5,106.4,109.9,105.7z M109.9,114.1
		c-0.6-0.7-1-1.4-1-2.4s0.3-1.7,1-2.4s1.4-1,2.4-1s1.7,0.3,2.4,1c0.6,0.7,1,1.4,1,2.4s-0.3,1.7-1,2.4s-1.4,1-2.4,1
		S110.5,114.7,109.9,114.1z"/>
	<polygon class="st1" points="0,27 27.5,27 27.5,-0.4 	"/>
</g>
</svg>
