<?xml version="1.0" encoding="UTF-8"?><svg id="Layer_1" xmlns="http://www.w3.org/2000/svg" viewBox="0 0 800 800"><defs><style>.cls-1{fill:#fff;}.cls-2{fill:#f37321;}</style></defs><rect width="800" height="800"/><g><path class="cls-1" d="m165.93,466.92c-.22-.22-.34-.5-.34-.82s.11-.59.34-.81c.22-.23.5-.35.82-.35s.59.12.82.35c.22.22.34.5.34.81s-.11.6-.34.82c-.23.22-.51.34-.82.34s-.6-.11-.82-.34Zm0,2.9c-.22-.23-.34-.5-.34-.82s.11-.6.34-.82.5-.34.82-.34.59.11.82.34c.22.22.34.5.34.82s-.11.59-.34.82c-.23.22-.51.34-.82.34s-.6-.11-.82-.34Zm0,2.89c-.22-.22-.34-.5-.34-.82s.11-.59.34-.81c.22-.23.5-.35.82-.35s.59.12.82.35c.22.22.34.5.34.81s-.11.6-.34.82c-.23.23-.51.35-.82.35s-.6-.12-.82-.35Zm0,2.9c-.22-.22-.34-.5-.34-.82s.11-.59.34-.82c.22-.22.5-.34.82-.34s.59.11.82.34c.22.23.34.5.34.82s-.11.6-.34.82c-.23.22-.51.34-.82.34s-.6-.11-.82-.34Zm0,2.89c-.22-.22-.34-.5-.34-.81s.11-.6.34-.82.5-.34.82-.34.59.11.82.34c.22.22.34.5.34.82s-.11.59-.34.81c-.23.23-.51.35-.82.35s-.6-.12-.82-.35Zm2.9-8.69c-.23-.23-.35-.5-.35-.82s.12-.6.35-.82c.22-.22.5-.34.81-.34s.6.11.82.34c.22.22.34.5.34.82s-.11.59-.34.82c-.22.22-.5.34-.82.34s-.59-.11-.81-.34Zm2.89-2.9c-.22-.22-.34-.5-.34-.82s.11-.59.34-.81c.22-.23.5-.35.82-.35s.59.12.82.35c.22.22.34.5.34.81s-.11.6-.34.82c-.23.22-.51.34-.82.34s-.6-.11-.82-.34Zm0,2.9c-.22-.23-.34-.5-.34-.82s.11-.6.34-.82.5-.34.82-.34.59.11.82.34c.22.22.34.5.34.82s-.11.59-.34.82c-.23.22-.51.34-.82.34s-.6-.11-.82-.34Zm0,2.89c-.22-.22-.34-.5-.34-.82s.11-.59.34-.81c.22-.23.5-.35.82-.35s.59.12.82.35c.22.22.34.5.34.81s-.11.6-.34.82c-.23.23-.51.35-.82.35s-.6-.12-.82-.35Zm0,2.9c-.22-.22-.34-.5-.34-.82s.11-.59.34-.82c.22-.22.5-.34.82-.34s.59.11.82.34c.22.23.34.5.34.82s-.11.6-.34.82c-.23.22-.51.34-.82.34s-.6-.11-.82-.34Zm0,2.89c-.22-.22-.34-.5-.34-.81s.11-.6.34-.82.5-.34.82-.34.59.11.82.34c.22.22.34.5.34.82s-.11.59-.34.81c-.23.23-.51.35-.82.35s-.6-.12-.82-.35Zm2.9-8.69c-.23-.23-.35-.5-.35-.82s.12-.6.35-.82c.22-.22.5-.34.82-.34s.59.11.81.34c.23.22.35.5.35.82s-.12.59-.35.82c-.22.22-.5.34-.81.34s-.6-.11-.82-.34Zm2.89-2.9c-.22-.22-.34-.5-.34-.82s.11-.59.34-.81c.23-.23.51-.35.82-.35s.6.12.82.35c.22.22.34.5.34.81s-.11.6-.34.82c-.22.22-.5.34-.82.34s-.59-.11-.82-.34Zm0,2.9c-.22-.23-.34-.5-.34-.82s.11-.6.34-.82c.23-.22.51-.34.82-.34s.6.11.82.34c.22.22.34.5.34.82s-.11.59-.34.82c-.22.22-.5.34-.82.34s-.59-.11-.82-.34Zm0,2.89c-.22-.22-.34-.5-.34-.82s.11-.59.34-.81c.23-.23.51-.35.82-.35s.6.12.82.35c.22.22.34.5.34.81s-.11.6-.34.82c-.22.23-.5.35-.82.35s-.59-.12-.82-.35Zm0,2.9c-.22-.22-.34-.5-.34-.82s.11-.59.34-.82c.23-.22.51-.34.82-.34s.6.11.82.34c.22.23.34.5.34.82s-.11.6-.34.82c-.22.22-.5.34-.82.34s-.59-.11-.82-.34Zm0,2.89c-.22-.22-.34-.5-.34-.81s.11-.6.34-.82c.23-.22.51-.34.82-.34s.6.11.82.34c.22.22.34.5.34.82s-.11.59-.34.81c-.22.23-.5.35-.82.35s-.59-.12-.82-.35Z"/><path class="cls-1" d="m183.32,466.92c-.22-.22-.34-.5-.34-.82s.11-.59.34-.81c.22-.23.5-.35.82-.35s.59.12.82.35c.22.22.34.5.34.81s-.11.6-.34.82c-.23.22-.51.34-.82.34s-.6-.11-.82-.34Zm0,2.9c-.22-.23-.34-.5-.34-.82s.11-.6.34-.82.5-.34.82-.34.59.11.82.34c.22.22.34.5.34.82s-.11.59-.34.82c-.23.22-.51.34-.82.34s-.6-.11-.82-.34Zm0,2.89c-.22-.22-.34-.5-.34-.82s.11-.59.34-.81c.22-.23.5-.35.82-.35s.59.12.82.35c.22.22.34.5.34.81s-.11.6-.34.82c-.23.23-.51.35-.82.35s-.6-.12-.82-.35Zm0,2.9c-.22-.22-.34-.5-.34-.82s.11-.59.34-.82c.22-.22.5-.34.82-.34s.59.11.82.34c.22.23.34.5.34.82s-.11.6-.34.82c-.23.22-.51.34-.82.34s-.6-.11-.82-.34Zm2.9,2.89c-.23-.22-.35-.5-.35-.81s.12-.6.35-.82c.22-.22.5-.34.81-.34s.6.11.82.34c.22.22.34.5.34.82s-.11.59-.34.81c-.22.23-.5.35-.82.35s-.59-.12-.81-.35Zm2.89,0c-.22-.22-.34-.5-.34-.81s.11-.6.34-.82.5-.34.82-.34.59.11.82.34c.22.22.34.5.34.82s-.11.59-.34.81c-.23.23-.51.35-.82.35s-.6-.12-.82-.35Zm2.9-2.89c-.23-.22-.35-.5-.35-.82s.12-.59.35-.82c.22-.22.5-.34.82-.34s.59.11.81.34c.23.23.35.5.35.82s-.12.6-.35.82c-.22.22-.5.34-.81.34s-.6-.11-.82-.34Zm2.89-8.7c-.22-.22-.34-.5-.34-.82s.11-.59.34-.81c.23-.23.51-.35.82-.35s.6.12.82.35c.22.22.34.5.34.81s-.11.6-.34.82c-.22.22-.5.34-.82.34s-.59-.11-.82-.34Zm0,2.9c-.22-.23-.34-.5-.34-.82s.11-.6.34-.82c.23-.22.51-.34.82-.34s.6.11.82.34c.22.22.34.5.34.82s-.11.59-.34.82c-.22.22-.5.34-.82.34s-.59-.11-.82-.34Zm0,2.89c-.22-.22-.34-.5-.34-.82s.11-.59.34-.81c.23-.23.51-.35.82-.35s.6.12.82.35c.22.22.34.5.34.81s-.11.6-.34.82c-.22.23-.5.35-.82.35s-.59-.12-.82-.35Zm0,2.9c-.22-.22-.34-.5-.34-.82s.11-.59.34-.82c.23-.22.51-.34.82-.34s.6.11.82.34c.22.23.34.5.34.82s-.11.6-.34.82c-.22.22-.5.34-.82.34s-.59-.11-.82-.34Zm0,2.89c-.22-.22-.34-.5-.34-.81s.11-.6.34-.82c.23-.22.51-.34.82-.34s.6.11.82.34c.22.22.34.5.34.82s-.11.59-.34.81c-.22.23-.5.35-.82.35s-.59-.12-.82-.35Z"/><path class="cls-1" d="m200.7,469.82c-.22-.23-.34-.5-.34-.82s.11-.6.34-.82.5-.34.82-.34.59.11.82.34c.22.22.34.5.34.82s-.11.59-.34.82c-.23.22-.51.34-.82.34s-.6-.11-.82-.34Zm2.9-2.9c-.23-.22-.35-.5-.35-.82s.12-.59.35-.81c.22-.23.5-.35.81-.35s.6.12.82.35c.22.22.34.5.34.81s-.11.6-.34.82c-.22.22-.5.34-.82.34s-.59-.11-.81-.34Zm0,5.79c-.23-.22-.35-.5-.35-.82s.12-.59.35-.81c.22-.23.5-.35.81-.35s.6.12.82.35c.22.22.34.5.34.81s-.11.6-.34.82c-.22.23-.5.35-.82.35s-.59-.12-.81-.35Zm0,5.79c-.23-.22-.35-.5-.35-.81s.12-.6.35-.82c.22-.22.5-.34.81-.34s.6.11.82.34c.22.22.34.5.34.82s-.11.59-.34.81c-.22.23-.5.35-.82.35s-.59-.12-.81-.35Zm2.89-11.59c-.22-.22-.34-.5-.34-.82s.11-.59.34-.81c.22-.23.5-.35.82-.35s.59.12.82.35c.22.22.34.5.34.81s-.11.6-.34.82c-.23.22-.51.34-.82.34s-.6-.11-.82-.34Zm0,5.79c-.22-.22-.34-.5-.34-.82s.11-.59.34-.81c.22-.23.5-.35.82-.35s.59.12.82.35c.22.22.34.5.34.81s-.11.6-.34.82c-.23.23-.51.35-.82.35s-.6-.12-.82-.35Zm0,5.79c-.22-.22-.34-.5-.34-.81s.11-.6.34-.82.5-.34.82-.34.59.11.82.34c.22.22.34.5.34.82s-.11.59-.34.81c-.23.23-.51.35-.82.35s-.6-.12-.82-.35Zm2.9-11.59c-.23-.22-.35-.5-.35-.82s.12-.59.35-.81c.22-.23.5-.35.82-.35s.59.12.81.35c.23.22.35.5.35.81s-.12.6-.35.82c-.22.22-.5.34-.81.34s-.6-.11-.82-.34Zm0,5.79c-.23-.22-.35-.5-.35-.82s.12-.59.35-.81c.22-.23.5-.35.82-.35s.59.12.81.35c.23.22.35.5.35.81s-.12.6-.35.82c-.22.23-.5.35-.81.35s-.6-.12-.82-.35Zm0,5.79c-.23-.22-.35-.5-.35-.81s.12-.6.35-.82c.22-.22.5-.34.82-.34s.59.11.81.34c.23.22.35.5.35.82s-.12.59-.35.81c-.22.23-.5.35-.81.35s-.6-.12-.82-.35Zm2.89-2.89c-.22-.22-.34-.5-.34-.82s.11-.59.34-.82c.23-.22.51-.34.82-.34s.6.11.82.34c.22.23.34.5.34.82s-.11.6-.34.82c-.22.22-.5.34-.82.34s-.59-.11-.82-.34Z"/><path class="cls-1" d="m220.99,469.82c-.23-.23-.35-.5-.35-.82s.12-.6.35-.82c.22-.22.5-.34.81-.34s.6.11.82.34c.22.22.34.5.34.82s-.11.59-.34.82c-.22.22-.5.34-.82.34s-.59-.11-.81-.34Zm0,8.69c-.23-.22-.35-.5-.35-.81s.12-.6.35-.82c.22-.22.5-.34.81-.34s.6.11.82.34c.22.22.34.5.34.82s-.11.59-.34.81c-.22.23-.5.35-.82.35s-.59-.12-.81-.35Zm2.89-14.48c-.22-.23-.34-.5-.34-.82s.11-.6.34-.82.5-.34.82-.34.59.11.82.34c.22.22.34.5.34.82s-.11.59-.34.82c-.23.22-.51.34-.82.34s-.6-.11-.82-.34Zm0,5.79c-.22-.23-.34-.5-.34-.82s.11-.6.34-.82.5-.34.82-.34.59.11.82.34c.22.22.34.5.34.82s-.11.59-.34.82c-.23.22-.51.34-.82.34s-.6-.11-.82-.34Zm0,2.89c-.22-.22-.34-.5-.34-.82s.11-.59.34-.81c.22-.23.5-.35.82-.35s.59.12.82.35c.22.22.34.5.34.81s-.11.6-.34.82c-.23.23-.51.35-.82.35s-.6-.12-.82-.35Zm0,2.9c-.22-.22-.34-.5-.34-.82s.11-.59.34-.82c.22-.22.5-.34.82-.34s.59.11.82.34c.22.23.34.5.34.82s-.11.6-.34.82c-.23.22-.51.34-.82.34s-.6-.11-.82-.34Zm0,2.89c-.22-.22-.34-.5-.34-.81s.11-.6.34-.82.5-.34.82-.34.59.11.82.34c.22.22.34.5.34.82s-.11.59-.34.81c-.23.23-.51.35-.82.35s-.6-.12-.82-.35Zm2.9,0c-.23-.22-.35-.5-.35-.81s.12-.6.35-.82c.22-.22.5-.34.82-.34s.59.11.81.34c.23.22.35.5.35.82s-.12.59-.35.81c-.22.23-.5.35-.81.35s-.6-.12-.82-.35Z"/><path class="cls-1" d="m235.47,469.82c-.22-.23-.34-.5-.34-.82s.11-.6.34-.82.5-.34.82-.34.59.11.82.34c.22.22.34.5.34.82s-.11.59-.34.82c-.23.22-.51.34-.82.34s-.6-.11-.82-.34Zm0,2.89c-.22-.22-.34-.5-.34-.82s.11-.59.34-.81c.22-.23.5-.35.82-.35s.59.12.82.35c.22.22.34.5.34.81s-.11.6-.34.82c-.23.23-.51.35-.82.35s-.6-.12-.82-.35Zm0,2.9c-.22-.22-.34-.5-.34-.82s.11-.59.34-.82c.22-.22.5-.34.82-.34s.59.11.82.34c.22.23.34.5.34.82s-.11.6-.34.82c-.23.22-.51.34-.82.34s-.6-.11-.82-.34Zm2.9-8.7c-.23-.22-.35-.5-.35-.82s.12-.59.35-.81c.22-.23.5-.35.81-.35s.6.12.82.35c.22.22.34.5.34.81s-.11.6-.34.82c-.22.22-.5.34-.82.34s-.59-.11-.81-.34Zm0,11.59c-.23-.22-.35-.5-.35-.81s.12-.6.35-.82c.22-.22.5-.34.81-.34s.6.11.82.34c.22.22.34.5.34.82s-.11.59-.34.81c-.22.23-.5.35-.82.35s-.59-.12-.81-.35Zm2.89-11.59c-.22-.22-.34-.5-.34-.82s.11-.59.34-.81c.22-.23.5-.35.82-.35s.59.12.82.35c.22.22.34.5.34.81s-.11.6-.34.82c-.23.22-.51.34-.82.34s-.6-.11-.82-.34Zm0,11.59c-.22-.22-.34-.5-.34-.81s.11-.6.34-.82.5-.34.82-.34.59.11.82.34c.22.22.34.5.34.82s-.11.59-.34.81c-.23.23-.51.35-.82.35s-.6-.12-.82-.35Zm2.9-11.59c-.23-.22-.35-.5-.35-.82s.12-.59.35-.81c.22-.23.5-.35.82-.35s.59.12.81.35c.23.22.35.5.35.81s-.12.6-.35.82c-.22.22-.5.34-.81.34s-.6-.11-.82-.34Zm0,11.59c-.23-.22-.35-.5-.35-.81s.12-.6.35-.82c.22-.22.5-.34.82-.34s.59.11.81.34c.23.22.35.5.35.82s-.12.59-.35.81c-.22.23-.5.35-.81.35s-.6-.12-.82-.35Zm2.89-8.69c-.22-.23-.34-.5-.34-.82s.11-.6.34-.82c.23-.22.51-.34.82-.34s.6.11.82.34c.22.22.34.5.34.82s-.11.59-.34.82c-.22.22-.5.34-.82.34s-.59-.11-.82-.34Zm0,8.69c-.22-.22-.34-.5-.34-.81s.11-.6.34-.82c.23-.22.51-.34.82-.34s.6.11.82.34c.22.22.34.5.34.82s-.11.59-.34.81c-.22.23-.5.35-.82.35s-.59-.12-.82-.35Z"/><path class="cls-1" d="m273.14,469.82c-.23-.23-.35-.5-.35-.82s.12-.6.35-.82c.22-.22.5-.34.81-.34s.6.11.82.34c.22.22.34.5.34.82s-.11.59-.34.82c-.22.22-.5.34-.82.34s-.59-.11-.81-.34Zm0,8.69c-.23-.22-.35-.5-.35-.81s.12-.6.35-.82c.22-.22.5-.34.81-.34s.6.11.82.34c.22.22.34.5.34.82s-.11.59-.34.81c-.22.23-.5.35-.82.35s-.59-.12-.81-.35Zm2.89-14.48c-.22-.23-.34-.5-.34-.82s.11-.6.34-.82.5-.34.82-.34.59.11.82.34c.22.22.34.5.34.82s-.11.59-.34.82c-.23.22-.51.34-.82.34s-.6-.11-.82-.34Zm0,5.79c-.22-.23-.34-.5-.34-.82s.11-.6.34-.82.5-.34.82-.34.59.11.82.34c.22.22.34.5.34.82s-.11.59-.34.82c-.23.22-.51.34-.82.34s-.6-.11-.82-.34Zm0,2.89c-.22-.22-.34-.5-.34-.82s.11-.59.34-.81c.22-.23.5-.35.82-.35s.59.12.82.35c.22.22.34.5.34.81s-.11.6-.34.82c-.23.23-.51.35-.82.35s-.6-.12-.82-.35Zm0,2.9c-.22-.22-.34-.5-.34-.82s.11-.59.34-.82c.22-.22.5-.34.82-.34s.59.11.82.34c.22.23.34.5.34.82s-.11.6-.34.82c-.23.22-.51.34-.82.34s-.6-.11-.82-.34Zm0,2.89c-.22-.22-.34-.5-.34-.81s.11-.6.34-.82.5-.34.82-.34.59.11.82.34c.22.22.34.5.34.82s-.11.59-.34.81c-.23.23-.51.35-.82.35s-.6-.12-.82-.35Zm2.9,0c-.23-.22-.35-.5-.35-.81s.12-.6.35-.82c.22-.22.5-.34.82-.34s.59.11.81.34c.23.22.35.5.35.82s-.12.59-.35.81c-.22.23-.5.35-.81.35s-.6-.12-.82-.35Z"/><path class="cls-1" d="m287.62,469.82c-.22-.23-.34-.5-.34-.82s.11-.6.34-.82.5-.34.82-.34.59.11.82.34c.22.22.34.5.34.82s-.11.59-.34.82c-.23.22-.51.34-.82.34s-.6-.11-.82-.34Zm2.9-2.9c-.23-.22-.35-.5-.35-.82s.12-.59.35-.81c.22-.23.5-.35.81-.35s.6.12.82.35c.22.22.34.5.34.81s-.11.6-.34.82c-.22.22-.5.34-.82.34s-.59-.11-.81-.34Zm0,5.79c-.23-.22-.35-.5-.35-.82s.12-.59.35-.81c.22-.23.5-.35.81-.35s.6.12.82.35c.22.22.34.5.34.81s-.11.6-.34.82c-.22.23-.5.35-.82.35s-.59-.12-.81-.35Zm0,5.79c-.23-.22-.35-.5-.35-.81s.12-.6.35-.82c.22-.22.5-.34.81-.34s.6.11.82.34c.22.22.34.5.34.82s-.11.59-.34.81c-.22.23-.5.35-.82.35s-.59-.12-.81-.35Zm2.89-11.59c-.22-.22-.34-.5-.34-.82s.11-.59.34-.81c.22-.23.5-.35.82-.35s.59.12.82.35c.22.22.34.5.34.81s-.11.6-.34.82c-.23.22-.51.34-.82.34s-.6-.11-.82-.34Zm0,5.79c-.22-.22-.34-.5-.34-.82s.11-.59.34-.81c.22-.23.5-.35.82-.35s.59.12.82.35c.22.22.34.5.34.81s-.11.6-.34.82c-.23.23-.51.35-.82.35s-.6-.12-.82-.35Zm0,5.79c-.22-.22-.34-.5-.34-.81s.11-.6.34-.82.5-.34.82-.34.59.11.82.34c.22.22.34.5.34.82s-.11.59-.34.81c-.23.23-.51.35-.82.35s-.6-.12-.82-.35Zm2.9-11.59c-.23-.22-.35-.5-.35-.82s.12-.59.35-.81c.22-.23.5-.35.82-.35s.59.12.81.35c.23.22.35.5.35.81s-.12.6-.35.82c-.22.22-.5.34-.81.34s-.6-.11-.82-.34Zm0,5.79c-.23-.22-.35-.5-.35-.82s.12-.59.35-.81c.22-.23.5-.35.82-.35s.59.12.81.35c.23.22.35.5.35.81s-.12.6-.35.82c-.22.23-.5.35-.81.35s-.6-.12-.82-.35Zm0,5.79c-.23-.22-.35-.5-.35-.81s.12-.6.35-.82c.22-.22.5-.34.82-.34s.59.11.81.34c.23.22.35.5.35.82s-.12.59-.35.81c-.22.23-.5.35-.81.35s-.6-.12-.82-.35Zm2.89-2.89c-.22-.22-.34-.5-.34-.82s.11-.59.34-.82c.23-.22.51-.34.82-.34s.6.11.82.34c.22.23.34.5.34.82s-.11.6-.34.82c-.22.22-.5.34-.82.34s-.59-.11-.82-.34Z"/><path class="cls-1" d="m322.39,466.92c-.22-.22-.34-.5-.34-.82s.11-.59.34-.81c.22-.23.5-.35.82-.35s.59.12.82.35c.22.22.34.5.34.81s-.11.6-.34.82c-.23.22-.51.34-.82.34s-.6-.11-.82-.34Zm0,2.9c-.22-.23-.34-.5-.34-.82s.11-.6.34-.82.5-.34.82-.34.59.11.82.34c.22.22.34.5.34.82s-.11.59-.34.82c-.23.22-.51.34-.82.34s-.6-.11-.82-.34Zm0,2.89c-.22-.22-.34-.5-.34-.82s.11-.59.34-.81c.22-.23.5-.35.82-.35s.59.12.82.35c.22.22.34.5.34.81s-.11.6-.34.82c-.23.23-.51.35-.82.35s-.6-.12-.82-.35Zm2.9,2.9c-.23-.22-.35-.5-.35-.82s.12-.59.35-.82c.22-.22.5-.34.81-.34s.6.11.82.34c.22.23.34.5.34.82s-.11.6-.34.82c-.22.22-.5.34-.82.34s-.59-.11-.81-.34Zm0,2.89c-.23-.22-.35-.5-.35-.81s.12-.6.35-.82c.22-.22.5-.34.81-.34s.6.11.82.34c.22.22.34.5.34.82s-.11.59-.34.81c-.22.23-.5.35-.82.35s-.59-.12-.81-.35Zm2.89-8.69c-.22-.23-.34-.5-.34-.82s.11-.6.34-.82.5-.34.82-.34.59.11.82.34c.22.22.34.5.34.82s-.11.59-.34.82c-.23.22-.51.34-.82.34s-.6-.11-.82-.34Zm0,2.89c-.22-.22-.34-.5-.34-.82s.11-.59.34-.81c.22-.23.5-.35.82-.35s.59.12.82.35c.22.22.34.5.34.81s-.11.6-.34.82c-.23.23-.51.35-.82.35s-.6-.12-.82-.35Zm2.9,2.9c-.23-.22-.35-.5-.35-.82s.12-.59.35-.82c.22-.22.5-.34.82-.34s.59.11.81.34c.23.23.35.5.35.82s-.12.6-.35.82c-.22.22-.5.34-.81.34s-.6-.11-.82-.34Zm0,2.89c-.23-.22-.35-.5-.35-.81s.12-.6.35-.82c.22-.22.5-.34.82-.34s.59.11.81.34c.23.22.35.5.35.82s-.12.59-.35.81c-.22.23-.5.35-.81.35s-.6-.12-.82-.35Zm2.89-11.59c-.22-.22-.34-.5-.34-.82s.11-.59.34-.81c.23-.23.51-.35.82-.35s.6.12.82.35c.22.22.34.5.34.81s-.11.6-.34.82c-.22.22-.5.34-.82.34s-.59-.11-.82-.34Zm0,2.9c-.22-.23-.34-.5-.34-.82s.11-.6.34-.82c.23-.22.51-.34.82-.34s.6.11.82.34c.22.22.34.5.34.82s-.11.59-.34.82c-.22.22-.5.34-.82.34s-.59-.11-.82-.34Zm0,2.89c-.22-.22-.34-.5-.34-.82s.11-.59.34-.81c.23-.23.51-.35.82-.35s.6.12.82.35c.22.22.34.5.34.81s-.11.6-.34.82c-.22.23-.5.35-.82.35s-.59-.12-.82-.35Z"/><path class="cls-1" d="m339.78,475.61c-.22-.22-.34-.5-.34-.82s.11-.59.34-.82c.22-.22.5-.34.82-.34s.59.11.82.34c.22.23.34.5.34.82s-.11.6-.34.82c-.23.22-.51.34-.82.34s-.6-.11-.82-.34Zm2.9-8.7c-.23-.22-.35-.5-.35-.82s.12-.59.35-.81c.22-.23.5-.35.81-.35s.6.12.82.35c.22.22.34.5.34.81s-.11.6-.34.82c-.22.22-.5.34-.82.34s-.59-.11-.81-.34Zm0,5.79c-.23-.22-.35-.5-.35-.82s.12-.59.35-.81c.22-.23.5-.35.81-.35s.6.12.82.35c.22.22.34.5.34.81s-.11.6-.34.82c-.22.23-.5.35-.82.35s-.59-.12-.81-.35Zm0,5.79c-.23-.22-.35-.5-.35-.81s.12-.6.35-.82c.22-.22.5-.34.81-.34s.6.11.82.34c.22.22.34.5.34.82s-.11.59-.34.81c-.22.23-.5.35-.82.35s-.59-.12-.81-.35Zm2.89-11.59c-.22-.22-.34-.5-.34-.82s.11-.59.34-.81c.22-.23.5-.35.82-.35s.59.12.82.35c.22.22.34.5.34.81s-.11.6-.34.82c-.23.22-.51.34-.82.34s-.6-.11-.82-.34Zm0,5.79c-.22-.22-.34-.5-.34-.82s.11-.59.34-.81c.22-.23.5-.35.82-.35s.59.12.82.35c.22.22.34.5.34.81s-.11.6-.34.82c-.23.23-.51.35-.82.35s-.6-.12-.82-.35Zm0,5.79c-.22-.22-.34-.5-.34-.81s.11-.6.34-.82.5-.34.82-.34.59.11.82.34c.22.22.34.5.34.82s-.11.59-.34.81c-.23.23-.51.35-.82.35s-.6-.12-.82-.35Zm2.9-11.59c-.23-.22-.35-.5-.35-.82s.12-.59.35-.81c.22-.23.5-.35.82-.35s.59.12.81.35c.23.22.35.5.35.81s-.12.6-.35.82c-.22.22-.5.34-.81.34s-.6-.11-.82-.34Zm0,5.79c-.23-.22-.35-.5-.35-.82s.12-.59.35-.81c.22-.23.5-.35.82-.35s.59.12.81.35c.23.22.35.5.35.81s-.12.6-.35.82c-.22.23-.5.35-.81.35s-.6-.12-.82-.35Zm0,5.79c-.23-.22-.35-.5-.35-.81s.12-.6.35-.82c.22-.22.5-.34.82-.34s.59.11.81.34c.23.22.35.5.35.82s-.12.59-.35.81c-.22.23-.5.35-.81.35s-.6-.12-.82-.35Zm2.89-8.69c-.22-.23-.34-.5-.34-.82s.11-.6.34-.82c.23-.22.51-.34.82-.34s.6.11.82.34c.22.22.34.5.34.82s-.11.59-.34.82c-.22.22-.5.34-.82.34s-.59-.11-.82-.34Zm0,2.89c-.22-.22-.34-.5-.34-.82s.11-.59.34-.81c.23-.23.51-.35.82-.35s.6.12.82.35c.22.22.34.5.34.81s-.11.6-.34.82c-.22.23-.5.35-.82.35s-.59-.12-.82-.35Zm0,2.9c-.22-.22-.34-.5-.34-.82s.11-.59.34-.82c.23-.22.51-.34.82-.34s.6.11.82.34c.22.23.34.5.34.82s-.11.6-.34.82c-.22.22-.5.34-.82.34s-.59-.11-.82-.34Zm0,2.89c-.22-.22-.34-.5-.34-.81s.11-.6.34-.82c.23-.22.51-.34.82-.34s.6.11.82.34c.22.22.34.5.34.82s-.11.59-.34.81c-.22.23-.5.35-.82.35s-.59-.12-.82-.35Z"/><path class="cls-1" d="m360.06,469.82c-.23-.23-.35-.5-.35-.82s.12-.6.35-.82c.22-.22.5-.34.81-.34s.6.11.82.34c.22.22.34.5.34.82s-.11.59-.34.82c-.22.22-.5.34-.82.34s-.59-.11-.81-.34Zm0,8.69c-.23-.22-.35-.5-.35-.81s.12-.6.35-.82c.22-.22.5-.34.81-.34s.6.11.82.34c.22.22.34.5.34.82s-.11.59-.34.81c-.22.23-.5.35-.82.35s-.59-.12-.81-.35Zm2.89-14.48c-.22-.23-.34-.5-.34-.82s.11-.6.34-.82.5-.34.82-.34.59.11.82.34c.22.22.34.5.34.82s-.11.59-.34.82c-.23.22-.51.34-.82.34s-.6-.11-.82-.34Zm0,5.79c-.22-.23-.34-.5-.34-.82s.11-.6.34-.82.5-.34.82-.34.59.11.82.34c.22.22.34.5.34.82s-.11.59-.34.82c-.23.22-.51.34-.82.34s-.6-.11-.82-.34Zm0,2.89c-.22-.22-.34-.5-.34-.82s.11-.59.34-.81c.22-.23.5-.35.82-.35s.59.12.82.35c.22.22.34.5.34.81s-.11.6-.34.82c-.23.23-.51.35-.82.35s-.6-.12-.82-.35Zm0,2.9c-.22-.22-.34-.5-.34-.82s.11-.59.34-.82c.22-.22.5-.34.82-.34s.59.11.82.34c.22.23.34.5.34.82s-.11.6-.34.82c-.23.22-.51.34-.82.34s-.6-.11-.82-.34Zm0,2.89c-.22-.22-.34-.5-.34-.81s.11-.6.34-.82.5-.34.82-.34.59.11.82.34c.22.22.34.5.34.82s-.11.59-.34.81c-.23.23-.51.35-.82.35s-.6-.12-.82-.35Zm2.9,0c-.23-.22-.35-.5-.35-.81s.12-.6.35-.82c.22-.22.5-.34.82-.34s.59.11.81.34c.23.22.35.5.35.82s-.12.59-.35.81c-.22.23-.5.35-.81.35s-.6-.12-.82-.35Z"/><path class="cls-1" d="m374.55,466.92c-.22-.22-.34-.5-.34-.82s.11-.59.34-.81c.22-.23.5-.35.82-.35s.59.12.82.35c.22.22.34.5.34.81s-.11.6-.34.82c-.23.22-.51.34-.82.34s-.6-.11-.82-.34Zm2.9-2.89c-.23-.23-.35-.5-.35-.82s.12-.6.35-.82c.22-.22.5-.34.81-.34s.6.11.82.34c.22.22.34.5.34.82s-.11.59-.34.82c-.22.22-.5.34-.82.34s-.59-.11-.81-.34Zm0,2.89c-.23-.22-.35-.5-.35-.82s.12-.59.35-.81c.22-.23.5-.35.81-.35s.6.12.82.35c.22.22.34.5.34.81s-.11.6-.34.82c-.22.22-.5.34-.82.34s-.59-.11-.81-.34Zm0,2.9c-.23-.23-.35-.5-.35-.82s.12-.6.35-.82c.22-.22.5-.34.81-.34s.6.11.82.34c.22.22.34.5.34.82s-.11.59-.34.82c-.22.22-.5.34-.82.34s-.59-.11-.81-.34Zm0,2.89c-.23-.22-.35-.5-.35-.82s.12-.59.35-.81c.22-.23.5-.35.81-.35s.6.12.82.35c.22.22.34.5.34.81s-.11.6-.34.82c-.22.23-.5.35-.82.35s-.59-.12-.81-.35Zm0,2.9c-.23-.22-.35-.5-.35-.82s.12-.59.35-.82c.22-.22.5-.34.81-.34s.6.11.82.34c.22.23.34.5.34.82s-.11.6-.34.82c-.22.22-.5.34-.82.34s-.59-.11-.81-.34Zm2.89-8.7c-.22-.22-.34-.5-.34-.82s.11-.59.34-.81c.22-.23.5-.35.82-.35s.59.12.82.35c.22.22.34.5.34.81s-.11.6-.34.82c-.23.22-.51.34-.82.34s-.6-.11-.82-.34Zm0,11.59c-.22-.22-.34-.5-.34-.81s.11-.6.34-.82.5-.34.82-.34.59.11.82.34c.22.22.34.5.34.82s-.11.59-.34.81c-.23.23-.51.35-.82.35s-.6-.12-.82-.35Zm2.9-11.59c-.23-.22-.35-.5-.35-.82s.12-.59.35-.81c.22-.23.5-.35.82-.35s.59.12.81.35c.23.22.35.5.35.81s-.12.6-.35.82c-.22.22-.5.34-.81.34s-.6-.11-.82-.34Zm0,11.59c-.23-.22-.35-.5-.35-.81s.12-.6.35-.82c.22-.22.5-.34.82-.34s.59.11.81.34c.23.22.35.5.35.82s-.12.59-.35.81c-.22.23-.5.35-.81.35s-.6-.12-.82-.35Z"/><path class="cls-1" d="m394.83,469.82c-.23-.23-.35-.5-.35-.82s.12-.6.35-.82c.22-.22.5-.34.81-.34s.6.11.82.34c.22.22.34.5.34.82s-.11.59-.34.82c-.22.22-.5.34-.82.34s-.59-.11-.81-.34Zm0,8.69c-.23-.22-.35-.5-.35-.81s.12-.6.35-.82c.22-.22.5-.34.81-.34s.6.11.82.34c.22.22.34.5.34.82s-.11.59-.34.81c-.22.23-.5.35-.82.35s-.59-.12-.81-.35Zm2.89-14.48c-.22-.23-.34-.5-.34-.82s.11-.6.34-.82.5-.34.82-.34.59.11.82.34c.22.22.34.5.34.82s-.11.59-.34.82c-.23.22-.51.34-.82.34s-.6-.11-.82-.34Zm0,5.79c-.22-.23-.34-.5-.34-.82s.11-.6.34-.82.5-.34.82-.34.59.11.82.34c.22.22.34.5.34.82s-.11.59-.34.82c-.23.22-.51.34-.82.34s-.6-.11-.82-.34Zm0,2.89c-.22-.22-.34-.5-.34-.82s.11-.59.34-.81c.22-.23.5-.35.82-.35s.59.12.82.35c.22.22.34.5.34.81s-.11.6-.34.82c-.23.23-.51.35-.82.35s-.6-.12-.82-.35Zm0,2.9c-.22-.22-.34-.5-.34-.82s.11-.59.34-.82c.22-.22.5-.34.82-.34s.59.11.82.34c.22.23.34.5.34.82s-.11.6-.34.82c-.23.22-.51.34-.82.34s-.6-.11-.82-.34Zm0,2.89c-.22-.22-.34-.5-.34-.81s.11-.6.34-.82.5-.34.82-.34.59.11.82.34c.22.22.34.5.34.82s-.11.59-.34.81c-.23.23-.51.35-.82.35s-.6-.12-.82-.35Zm2.9,0c-.23-.22-.35-.5-.35-.81s.12-.6.35-.82c.22-.22.5-.34.82-.34s.59.11.81.34c.23.22.35.5.35.82s-.12.59-.35.81c-.22.23-.5.35-.81.35s-.6-.12-.82-.35Z"/><path class="cls-1" d="m409.32,466.92c-.22-.22-.34-.5-.34-.82s.11-.59.34-.81c.22-.23.5-.35.82-.35s.59.12.82.35c.22.22.34.5.34.81s-.11.6-.34.82c-.23.22-.5.34-.82.34s-.6-.11-.82-.34Zm0,2.9c-.22-.23-.34-.5-.34-.82s.11-.6.34-.82.5-.34.82-.34.59.11.82.34c.22.22.34.5.34.82s-.11.59-.34.82c-.23.22-.5.34-.82.34s-.6-.11-.82-.34Zm0,2.89c-.22-.22-.34-.5-.34-.82s.11-.59.34-.81c.22-.23.5-.35.82-.35s.59.12.82.35c.22.22.34.5.34.81s-.11.6-.34.82-.5.35-.82.35-.6-.12-.82-.35Zm0,2.9c-.22-.22-.34-.5-.34-.82s.11-.59.34-.82c.22-.22.5-.34.82-.34s.59.11.82.34c.22.23.34.5.34.82s-.11.6-.34.82c-.23.22-.5.34-.82.34s-.6-.11-.82-.34Zm0,2.89c-.22-.22-.34-.5-.34-.81s.11-.6.34-.82.5-.34.82-.34.59.11.82.34c.22.22.34.5.34.82s-.11.59-.34.81-.5.35-.82.35-.6-.12-.82-.35Zm2.9-8.69c-.23-.23-.35-.5-.35-.82s.12-.6.35-.82c.22-.22.5-.34.81-.34s.6.11.82.34.34.5.34.82-.11.59-.34.82c-.22.22-.5.34-.82.34s-.59-.11-.81-.34Zm2.89-2.9c-.22-.22-.34-.5-.34-.82s.11-.59.34-.81c.22-.23.5-.35.82-.35s.59.12.82.35c.22.22.34.5.34.81s-.11.6-.34.82c-.23.22-.5.34-.82.34s-.6-.11-.82-.34Zm2.9,0c-.23-.22-.35-.5-.35-.82s.12-.59.35-.81c.22-.23.5-.35.82-.35s.59.12.81.35c.23.22.35.5.35.81s-.12.6-.35.82c-.22.22-.5.34-.81.34s-.6-.11-.82-.34Zm2.89,2.9c-.22-.23-.34-.5-.34-.82s.11-.6.34-.82c.23-.22.5-.34.82-.34s.6.11.82.34.34.5.34.82-.11.59-.34.82c-.22.22-.5.34-.82.34s-.59-.11-.82-.34Zm0,2.89c-.22-.22-.34-.5-.34-.82s.11-.59.34-.81c.23-.23.5-.35.82-.35s.6.12.82.35c.22.22.34.5.34.81s-.11.6-.34.82c-.22.23-.5.35-.82.35s-.59-.12-.82-.35Zm0,2.9c-.22-.22-.34-.5-.34-.82s.11-.59.34-.82c.23-.22.5-.34.82-.34s.6.11.82.34c.22.23.34.5.34.82s-.11.6-.34.82-.5.34-.82.34-.59-.11-.82-.34Zm0,2.89c-.22-.22-.34-.5-.34-.81s.11-.6.34-.82c.23-.22.5-.34.82-.34s.6.11.82.34.34.5.34.82-.11.59-.34.81c-.22.23-.5.35-.82.35s-.59-.12-.82-.35Z"/><path class="cls-1" d="m426.7,469.82c-.22-.23-.34-.5-.34-.82s.11-.6.34-.82.5-.34.82-.34.59.11.82.34c.22.22.34.5.34.82s-.11.59-.34.82c-.23.22-.5.34-.82.34s-.6-.11-.82-.34Zm0,2.89c-.22-.22-.34-.5-.34-.82s.11-.59.34-.81c.22-.23.5-.35.82-.35s.59.12.82.35c.22.22.34.5.34.81s-.11.6-.34.82-.5.35-.82.35-.6-.12-.82-.35Zm2.9-5.79c-.23-.22-.35-.5-.35-.82s.12-.59.35-.81c.22-.23.5-.35.81-.35s.6.12.82.35c.22.22.34.5.34.81s-.11.6-.34.82-.5.34-.82.34-.59-.11-.81-.34Zm0,8.7c-.23-.22-.35-.5-.35-.82s.12-.59.35-.82.5-.34.81-.34.6.11.82.34c.22.23.34.5.34.82s-.11.6-.34.82-.5.34-.82.34-.59-.11-.81-.34Zm0,5.79c-.23-.22-.35-.5-.35-.82s.12-.59.35-.82.5-.34.81-.34.6.11.82.34c.22.23.34.5.34.82s-.11.6-.34.82-.5.34-.82.34-.59-.11-.81-.34Zm2.89-14.49c-.22-.22-.34-.5-.34-.82s.11-.59.34-.81c.22-.23.5-.35.82-.35s.59.12.82.35c.22.22.34.5.34.81s-.11.6-.34.82c-.23.22-.5.34-.82.34s-.6-.11-.82-.34Zm0,8.7c-.22-.22-.34-.5-.34-.82s.11-.59.34-.82c.22-.22.5-.34.82-.34s.59.11.82.34c.22.23.34.5.34.82s-.11.6-.34.82c-.23.22-.5.34-.82.34s-.6-.11-.82-.34Zm0,5.79c-.22-.22-.34-.5-.34-.82s.11-.59.34-.82c.22-.22.5-.34.82-.34s.59.11.82.34c.22.23.34.5.34.82s-.11.6-.34.82c-.23.22-.5.34-.82.34s-.6-.11-.82-.34Zm2.9-11.59c-.23-.23-.35-.5-.35-.82s.12-.6.35-.82c.22-.22.5-.34.82-.34s.59.11.81.34c.23.22.35.5.35.82s-.12.59-.35.82c-.22.22-.5.34-.81.34s-.6-.11-.82-.34Zm0,5.79c-.23-.22-.35-.5-.35-.82s.12-.59.35-.82.5-.34.82-.34.59.11.81.34c.23.23.35.5.35.82s-.12.6-.35.82c-.22.22-.5.34-.81.34s-.6-.11-.82-.34Zm0,5.79c-.23-.22-.35-.5-.35-.82s.12-.59.35-.82.5-.34.82-.34.59.11.81.34c.23.23.35.5.35.82s-.12.6-.35.82c-.22.22-.5.34-.81.34s-.6-.11-.82-.34Zm2.89-14.49c-.22-.22-.34-.5-.34-.82s.11-.59.34-.81c.23-.23.5-.35.82-.35s.6.12.82.35c.22.22.34.5.34.81s-.11.6-.34.82-.5.34-.82.34-.59-.11-.82-.34Zm0,2.9c-.22-.23-.34-.5-.34-.82s.11-.6.34-.82c.23-.22.5-.34.82-.34s.6.11.82.34.34.5.34.82-.11.59-.34.82c-.22.22-.5.34-.82.34s-.59-.11-.82-.34Zm0,2.89c-.22-.22-.34-.5-.34-.82s.11-.59.34-.81c.23-.23.5-.35.82-.35s.6.12.82.35c.22.22.34.5.34.81s-.11.6-.34.82c-.22.23-.5.35-.82.35s-.59-.12-.82-.35Zm0,2.9c-.22-.22-.34-.5-.34-.82s.11-.59.34-.82c.23-.22.5-.34.82-.34s.6.11.82.34c.22.23.34.5.34.82s-.11.6-.34.82-.5.34-.82.34-.59-.11-.82-.34Zm0,2.89c-.22-.22-.34-.5-.34-.81s.11-.6.34-.82c.23-.22.5-.34.82-.34s.6.11.82.34.34.5.34.82-.11.59-.34.81c-.22.23-.5.35-.82.35s-.59-.12-.82-.35Z"/><path class="cls-1" d="m461.47,469.82c-.22-.23-.34-.5-.34-.82s.11-.6.34-.82.5-.34.82-.34.59.11.82.34c.22.22.34.5.34.82s-.11.59-.34.82c-.23.22-.5.34-.82.34s-.6-.11-.82-.34Zm2.9-2.9c-.23-.22-.35-.5-.35-.82s.12-.59.35-.81c.22-.23.5-.35.81-.35s.6.12.82.35c.22.22.34.5.34.81s-.11.6-.34.82-.5.34-.82.34-.59-.11-.81-.34Zm0,2.9c-.23-.23-.35-.5-.35-.82s.12-.6.35-.82c.22-.22.5-.34.81-.34s.6.11.82.34.34.5.34.82-.11.59-.34.82c-.22.22-.5.34-.82.34s-.59-.11-.81-.34Zm0,2.89c-.23-.22-.35-.5-.35-.82s.12-.59.35-.81c.22-.23.5-.35.81-.35s.6.12.82.35c.22.22.34.5.34.81s-.11.6-.34.82c-.22.23-.5.35-.82.35s-.59-.12-.81-.35Zm0,2.9c-.23-.22-.35-.5-.35-.82s.12-.59.35-.82.5-.34.81-.34.6.11.82.34c.22.23.34.5.34.82s-.11.6-.34.82-.5.34-.82.34-.59-.11-.81-.34Zm0,2.89c-.23-.22-.35-.5-.35-.81s.12-.6.35-.82c.22-.22.5-.34.81-.34s.6.11.82.34.34.5.34.82-.11.59-.34.81c-.22.23-.5.35-.82.35s-.59-.12-.81-.35Zm2.89-14.48c-.22-.23-.34-.5-.34-.82s.11-.6.34-.82.5-.34.82-.34.59.11.82.34c.22.22.34.5.34.82s-.11.59-.34.82c-.23.22-.5.34-.82.34s-.6-.11-.82-.34Zm0,5.79c-.22-.23-.34-.5-.34-.82s.11-.6.34-.82.5-.34.82-.34.59.11.82.34c.22.22.34.5.34.82s-.11.59-.34.82c-.23.22-.5.34-.82.34s-.6-.11-.82-.34Zm2.9-5.79c-.23-.23-.35-.5-.35-.82s.12-.6.35-.82c.22-.22.5-.34.82-.34s.59.11.81.34c.23.22.35.5.35.82s-.12.59-.35.82c-.22.22-.5.34-.81.34s-.6-.11-.82-.34Zm0,5.79c-.23-.23-.35-.5-.35-.82s.12-.6.35-.82c.22-.22.5-.34.82-.34s.59.11.81.34c.23.22.35.5.35.82s-.12.59-.35.82c-.22.22-.5.34-.81.34s-.6-.11-.82-.34Z"/><path class="cls-1" d="m478.86,469.82c-.22-.23-.34-.5-.34-.82s.11-.6.34-.82.5-.34.82-.34.59.11.82.34c.22.22.34.5.34.82s-.11.59-.34.82c-.23.22-.5.34-.82.34s-.6-.11-.82-.34Zm0,2.89c-.22-.22-.34-.5-.34-.82s.11-.59.34-.81c.22-.23.5-.35.82-.35s.59.12.82.35c.22.22.34.5.34.81s-.11.6-.34.82-.5.35-.82.35-.6-.12-.82-.35Zm0,2.9c-.22-.22-.34-.5-.34-.82s.11-.59.34-.82c.22-.22.5-.34.82-.34s.59.11.82.34c.22.23.34.5.34.82s-.11.6-.34.82c-.23.22-.5.34-.82.34s-.6-.11-.82-.34Zm2.9-8.7c-.23-.22-.35-.5-.35-.82s.12-.59.35-.81c.22-.23.5-.35.81-.35s.6.12.82.35c.22.22.34.5.34.81s-.11.6-.34.82-.5.34-.82.34-.59-.11-.81-.34Zm0,11.59c-.23-.22-.35-.5-.35-.81s.12-.6.35-.82c.22-.22.5-.34.81-.34s.6.11.82.34.34.5.34.82-.11.59-.34.81c-.22.23-.5.35-.82.35s-.59-.12-.81-.35Zm2.89-11.59c-.22-.22-.34-.5-.34-.82s.11-.59.34-.81c.22-.23.5-.35.82-.35s.59.12.82.35c.22.22.34.5.34.81s-.11.6-.34.82c-.23.22-.5.34-.82.34s-.6-.11-.82-.34Zm0,11.59c-.22-.22-.34-.5-.34-.81s.11-.6.34-.82.5-.34.82-.34.59.11.82.34c.22.22.34.5.34.82s-.11.59-.34.81-.5.35-.82.35-.6-.12-.82-.35Zm2.9-11.59c-.23-.22-.35-.5-.35-.82s.12-.59.35-.81c.22-.23.5-.35.82-.35s.59.12.81.35c.23.22.35.5.35.81s-.12.6-.35.82c-.22.22-.5.34-.81.34s-.6-.11-.82-.34Zm0,11.59c-.23-.22-.35-.5-.35-.81s.12-.6.35-.82c.22-.22.5-.34.82-.34s.59.11.81.34c.23.22.35.5.35.82s-.12.59-.35.81c-.22.23-.5.35-.81.35s-.6-.12-.82-.35Zm2.89-8.69c-.22-.23-.34-.5-.34-.82s.11-.6.34-.82c.23-.22.5-.34.82-.34s.6.11.82.34.34.5.34.82-.11.59-.34.82c-.22.22-.5.34-.82.34s-.59-.11-.82-.34Zm0,2.89c-.22-.22-.34-.5-.34-.82s.11-.59.34-.81c.23-.23.5-.35.82-.35s.6.12.82.35c.22.22.34.5.34.81s-.11.6-.34.82c-.22.23-.5.35-.82.35s-.59-.12-.82-.35Zm0,2.9c-.22-.22-.34-.5-.34-.82s.11-.59.34-.82c.23-.22.5-.34.82-.34s.6.11.82.34c.22.23.34.5.34.82s-.11.6-.34.82-.5.34-.82.34-.59-.11-.82-.34Z"/><path class="cls-1" d="m499.14,466.92c-.23-.22-.35-.5-.35-.82s.12-.59.35-.81c.22-.23.5-.35.81-.35s.6.12.82.35c.22.22.34.5.34.81s-.11.6-.34.82-.5.34-.82.34-.59-.11-.81-.34Zm0,2.9c-.23-.23-.35-.5-.35-.82s.12-.6.35-.82c.22-.22.5-.34.81-.34s.6.11.82.34.34.5.34.82-.11.59-.34.82c-.22.22-.5.34-.82.34s-.59-.11-.81-.34Zm0,2.89c-.23-.22-.35-.5-.35-.82s.12-.59.35-.81c.22-.23.5-.35.81-.35s.6.12.82.35c.22.22.34.5.34.81s-.11.6-.34.82c-.22.23-.5.35-.82.35s-.59-.12-.81-.35Zm0,2.9c-.23-.22-.35-.5-.35-.82s.12-.59.35-.82.5-.34.81-.34.6.11.82.34c.22.23.34.5.34.82s-.11.6-.34.82-.5.34-.82.34-.59-.11-.81-.34Zm0,2.89c-.23-.22-.35-.5-.35-.81s.12-.6.35-.82c.22-.22.5-.34.81-.34s.6.11.82.34.34.5.34.82-.11.59-.34.81c-.22.23-.5.35-.82.35s-.59-.12-.81-.35Zm2.89-8.69c-.22-.23-.34-.5-.34-.82s.11-.6.34-.82.5-.34.82-.34.59.11.82.34c.22.22.34.5.34.82s-.11.59-.34.82c-.23.22-.5.34-.82.34s-.6-.11-.82-.34Zm2.9-2.9c-.23-.22-.35-.5-.35-.82s.12-.59.35-.81c.22-.23.5-.35.82-.35s.59.12.81.35c.23.22.35.5.35.81s-.12.6-.35.82c-.22.22-.5.34-.81.34s-.6-.11-.82-.34Zm2.89,0c-.22-.22-.34-.5-.34-.82s.11-.59.34-.81c.23-.23.5-.35.82-.35s.6.12.82.35c.22.22.34.5.34.81s-.11.6-.34.82-.5.34-.82.34-.59-.11-.82-.34Z"/><path class="cls-1" d="m531.01,466.92c-.22-.22-.34-.5-.34-.82s.11-.59.34-.81c.22-.23.5-.35.82-.35s.59.12.82.35c.22.22.34.5.34.81s-.11.6-.34.82c-.23.22-.5.34-.82.34s-.6-.11-.82-.34Zm0,2.9c-.22-.23-.34-.5-.34-.82s.11-.6.34-.82.5-.34.82-.34.59.11.82.34c.22.22.34.5.34.82s-.11.59-.34.82c-.23.22-.5.34-.82.34s-.6-.11-.82-.34Zm0,11.59c-.22-.22-.34-.5-.34-.82s.11-.59.34-.82c.22-.22.5-.34.82-.34s.59.11.82.34c.22.23.34.5.34.82s-.11.6-.34.82c-.23.22-.5.34-.82.34s-.6-.11-.82-.34Zm2.9-8.7c-.23-.22-.35-.5-.35-.82s.12-.59.35-.81c.22-.23.5-.35.81-.35s.6.12.82.35c.22.22.34.5.34.81s-.11.6-.34.82c-.22.23-.5.35-.82.35s-.59-.12-.81-.35Zm0,2.9c-.23-.22-.35-.5-.35-.82s.12-.59.35-.82.5-.34.81-.34.6.11.82.34c.22.23.34.5.34.82s-.11.6-.34.82-.5.34-.82.34-.59-.11-.81-.34Zm0,5.79c-.23-.22-.35-.5-.35-.82s.12-.59.35-.82.5-.34.81-.34.6.11.82.34c.22.23.34.5.34.82s-.11.6-.34.82-.5.34-.82.34-.59-.11-.81-.34Zm2.89-2.9c-.22-.22-.34-.5-.34-.81s.11-.6.34-.82.5-.34.82-.34.59.11.82.34c.22.22.34.5.34.82s-.11.59-.34.81-.5.35-.82.35-.6-.12-.82-.35Zm2.9-5.79c-.23-.22-.35-.5-.35-.82s.12-.59.35-.81c.22-.23.5-.35.82-.35s.59.12.81.35c.23.22.35.5.35.81s-.12.6-.35.82c-.22.23-.5.35-.81.35s-.6-.12-.82-.35Zm0,2.9c-.23-.22-.35-.5-.35-.82s.12-.59.35-.82.5-.34.82-.34.59.11.81.34c.23.23.35.5.35.82s-.12.6-.35.82c-.22.22-.5.34-.81.34s-.6-.11-.82-.34Zm2.89-8.7c-.22-.22-.34-.5-.34-.82s.11-.59.34-.81c.23-.23.5-.35.82-.35s.6.12.82.35c.22.22.34.5.34.81s-.11.6-.34.82-.5.34-.82.34-.59-.11-.82-.34Zm0,2.9c-.22-.23-.34-.5-.34-.82s.11-.6.34-.82c.23-.22.5-.34.82-.34s.6.11.82.34.34.5.34.82-.11.59-.34.82c-.22.22-.5.34-.82.34s-.59-.11-.82-.34Z"/><path class="cls-1" d="m548.39,469.82c-.22-.23-.34-.5-.34-.82s.11-.6.34-.82.5-.34.82-.34.59.11.82.34c.22.22.34.5.34.82s-.11.59-.34.82c-.23.22-.5.34-.82.34s-.6-.11-.82-.34Zm0,2.89c-.22-.22-.34-.5-.34-.82s.11-.59.34-.81c.22-.23.5-.35.82-.35s.59.12.82.35c.22.22.34.5.34.81s-.11.6-.34.82-.5.35-.82.35-.6-.12-.82-.35Zm0,2.9c-.22-.22-.34-.5-.34-.82s.11-.59.34-.82c.22-.22.5-.34.82-.34s.59.11.82.34c.22.23.34.5.34.82s-.11.6-.34.82c-.23.22-.5.34-.82.34s-.6-.11-.82-.34Zm2.9-8.7c-.23-.22-.35-.5-.35-.82s.12-.59.35-.81c.22-.23.5-.35.81-.35s.6.12.82.35c.22.22.34.5.34.81s-.11.6-.34.82-.5.34-.82.34-.59-.11-.81-.34Zm0,11.59c-.23-.22-.35-.5-.35-.81s.12-.6.35-.82c.22-.22.5-.34.81-.34s.6.11.82.34.34.5.34.82-.11.59-.34.81c-.22.23-.5.35-.82.35s-.59-.12-.81-.35Zm2.89-11.59c-.22-.22-.34-.5-.34-.82s.11-.59.34-.81c.22-.23.5-.35.82-.35s.59.12.82.35c.22.22.34.5.34.81s-.11.6-.34.82c-.23.22-.5.34-.82.34s-.6-.11-.82-.34Zm0,11.59c-.22-.22-.34-.5-.34-.81s.11-.6.34-.82.5-.34.82-.34.59.11.82.34c.22.22.34.5.34.82s-.11.59-.34.81-.5.35-.82.35-.6-.12-.82-.35Zm2.9-11.59c-.23-.22-.35-.5-.35-.82s.12-.59.35-.81c.22-.23.5-.35.82-.35s.59.12.81.35c.23.22.35.5.35.81s-.12.6-.35.82c-.22.22-.5.34-.81.34s-.6-.11-.82-.34Zm0,11.59c-.23-.22-.35-.5-.35-.81s.12-.6.35-.82c.22-.22.5-.34.82-.34s.59.11.81.34c.23.22.35.5.35.82s-.12.59-.35.81c-.22.23-.5.35-.81.35s-.6-.12-.82-.35Zm2.89-8.69c-.22-.23-.34-.5-.34-.82s.11-.6.34-.82c.23-.22.5-.34.82-.34s.6.11.82.34.34.5.34.82-.11.59-.34.82c-.22.22-.5.34-.82.34s-.59-.11-.82-.34Zm0,2.89c-.22-.22-.34-.5-.34-.82s.11-.59.34-.81c.23-.23.5-.35.82-.35s.6.12.82.35c.22.22.34.5.34.81s-.11.6-.34.82c-.22.23-.5.35-.82.35s-.59-.12-.82-.35Zm0,2.9c-.22-.22-.34-.5-.34-.82s.11-.59.34-.82c.23-.22.5-.34.82-.34s.6.11.82.34c.22.23.34.5.34.82s-.11.6-.34.82-.5.34-.82.34-.59-.11-.82-.34Z"/><path class="cls-1" d="m565.78,466.92c-.22-.22-.34-.5-.34-.82s.11-.59.34-.81c.22-.23.5-.35.82-.35s.59.12.82.35c.22.22.34.5.34.81s-.11.6-.34.82c-.23.22-.5.34-.82.34s-.6-.11-.82-.34Zm0,2.9c-.22-.23-.34-.5-.34-.82s.11-.6.34-.82.5-.34.82-.34.59.11.82.34c.22.22.34.5.34.82s-.11.59-.34.82c-.23.22-.5.34-.82.34s-.6-.11-.82-.34Zm0,2.89c-.22-.22-.34-.5-.34-.82s.11-.59.34-.81c.22-.23.5-.35.82-.35s.59.12.82.35c.22.22.34.5.34.81s-.11.6-.34.82-.5.35-.82.35-.6-.12-.82-.35Zm0,2.9c-.22-.22-.34-.5-.34-.82s.11-.59.34-.82c.22-.22.5-.34.82-.34s.59.11.82.34c.22.23.34.5.34.82s-.11.6-.34.82c-.23.22-.5.34-.82.34s-.6-.11-.82-.34Zm2.9,2.89c-.23-.22-.35-.5-.35-.81s.12-.6.35-.82c.22-.22.5-.34.81-.34s.6.11.82.34.34.5.34.82-.11.59-.34.81c-.22.23-.5.35-.82.35s-.59-.12-.81-.35Zm2.89,0c-.22-.22-.34-.5-.34-.81s.11-.6.34-.82.5-.34.82-.34.59.11.82.34c.22.22.34.5.34.82s-.11.59-.34.81-.5.35-.82.35-.6-.12-.82-.35Zm2.9-2.89c-.23-.22-.35-.5-.35-.82s.12-.59.35-.82.5-.34.82-.34.59.11.81.34c.23.23.35.5.35.82s-.12.6-.35.82c-.22.22-.5.34-.81.34s-.6-.11-.82-.34Zm2.89-8.7c-.22-.22-.34-.5-.34-.82s.11-.59.34-.81c.23-.23.5-.35.82-.35s.6.12.82.35c.22.22.34.5.34.81s-.11.6-.34.82-.5.34-.82.34-.59-.11-.82-.34Zm0,2.9c-.22-.23-.34-.5-.34-.82s.11-.6.34-.82c.23-.22.5-.34.82-.34s.6.11.82.34.34.5.34.82-.11.59-.34.82c-.22.22-.5.34-.82.34s-.59-.11-.82-.34Zm0,2.89c-.22-.22-.34-.5-.34-.82s.11-.59.34-.81c.23-.23.5-.35.82-.35s.6.12.82.35c.22.22.34.5.34.81s-.11.6-.34.82c-.22.23-.5.35-.82.35s-.59-.12-.82-.35Zm0,2.9c-.22-.22-.34-.5-.34-.82s.11-.59.34-.82c.23-.22.5-.34.82-.34s.6.11.82.34c.22.23.34.5.34.82s-.11.6-.34.82-.5.34-.82.34-.59-.11-.82-.34Zm0,2.89c-.22-.22-.34-.5-.34-.81s.11-.6.34-.82c.23-.22.5-.34.82-.34s.6.11.82.34.34.5.34.82-.11.59-.34.81c-.22.23-.5.35-.82.35s-.59-.12-.82-.35Z"/><path class="cls-1" d="m588.96,478.5c-.22-.22-.34-.5-.34-.81s.11-.6.34-.82.5-.34.82-.34.59.11.82.34c.22.22.34.5.34.82s-.11.59-.34.81-.5.35-.82.35-.6-.12-.82-.35Z"/><path class="cls-1" d="m606.34,478.5c-.22-.22-.34-.5-.34-.81s.11-.6.34-.82.5-.34.82-.34.59.11.82.34c.22.22.34.5.34.82s-.11.59-.34.81-.5.35-.82.35-.6-.12-.82-.35Z"/><path class="cls-1" d="m623.73,478.5c-.22-.22-.34-.5-.34-.81s.11-.6.34-.82.5-.34.82-.34.59.11.82.34c.22.22.34.5.34.82s-.11.59-.34.81-.5.35-.82.35-.6-.12-.82-.35Z"/></g><g><path class="cls-2" d="m48.39,361.95c-.82-.83-1.24-1.82-1.24-2.99s.41-2.14,1.24-2.96c.83-.82,1.82-1.24,2.99-1.24s2.17.41,2.99,1.24c.82.82,1.24,1.81,1.24,2.96s-.41,2.16-1.24,2.99c-.83.82-1.82,1.24-2.99,1.24s-2.16-.41-2.99-1.24Zm0,10.57c-.82-.83-1.24-1.82-1.24-2.99s.41-2.17,1.24-2.99c.83-.82,1.82-1.24,2.99-1.24s2.17.41,2.99,1.24c.82.83,1.24,1.82,1.24,2.99s-.41,2.16-1.24,2.99c-.83.82-1.82,1.24-2.99,1.24s-2.16-.41-2.99-1.24Zm0,10.57c-.82-.83-1.24-1.82-1.24-2.99s.41-2.17,1.24-2.99c.83-.82,1.82-1.24,2.99-1.24s2.17.41,2.99,1.24c.82.83,1.24,1.82,1.24,2.99s-.41,2.16-1.24,2.99c-.83.82-1.82,1.24-2.99,1.24s-2.16-.41-2.99-1.24Zm10.57-31.68c-.82-.82-1.24-1.82-1.24-2.99s.41-2.16,1.24-2.99c.83-.82,1.82-1.24,2.99-1.24s2.17.41,2.99,1.24c.82.83,1.24,1.82,1.24,2.99s-.41,2.17-1.24,2.99-1.82,1.24-2.99,1.24-2.16-.41-2.99-1.24Zm0,10.54c-.82-.83-1.24-1.82-1.24-2.99s.41-2.14,1.24-2.96c.83-.82,1.82-1.24,2.99-1.24s2.17.41,2.99,1.24c.82.82,1.24,1.81,1.24,2.96s-.41,2.16-1.24,2.99c-.83.82-1.82,1.24-2.99,1.24s-2.16-.41-2.99-1.24Zm10.57-21.11c-.82-.82-1.24-1.82-1.24-2.99s.41-2.16,1.24-2.99c.83-.82,1.82-1.24,2.99-1.24s2.14.41,2.96,1.24c.82.83,1.24,1.82,1.24,2.99s-.41,2.17-1.24,2.99c-.82.83-1.81,1.24-2.96,1.24s-2.16-.41-2.99-1.24Zm0,21.11c-.82-.83-1.24-1.82-1.24-2.99s.41-2.14,1.24-2.96c.83-.82,1.82-1.24,2.99-1.24s2.14.41,2.96,1.24,1.24,1.81,1.24,2.96-.41,2.16-1.24,2.99c-.82.82-1.81,1.24-2.96,1.24s-2.16-.41-2.99-1.24Zm10.54-10.54c-.83-.82-1.24-1.82-1.24-2.99s.41-2.16,1.24-2.99,1.82-1.24,2.99-1.24,2.16.41,2.99,1.24c.82.83,1.24,1.82,1.24,2.99s-.41,2.17-1.24,2.99-1.82,1.24-2.99,1.24-2.17-.41-2.99-1.24Zm0,10.54c-.83-.83-1.24-1.82-1.24-2.99s.41-2.14,1.24-2.96c.82-.82,1.82-1.24,2.99-1.24s2.16.41,2.99,1.24c.82.82,1.24,1.81,1.24,2.96s-.41,2.16-1.24,2.99c-.83.82-1.82,1.24-2.99,1.24s-2.17-.41-2.99-1.24Zm10.57,0c-.83-.83-1.24-1.82-1.24-2.99s.41-2.14,1.24-2.96c.82-.82,1.82-1.24,2.99-1.24s2.16.41,2.99,1.24c.82.82,1.24,1.81,1.24,2.96s-.41,2.16-1.24,2.99c-.83.82-1.82,1.24-2.99,1.24s-2.17-.41-2.99-1.24Zm0,10.57c-.83-.83-1.24-1.82-1.24-2.99s.41-2.17,1.24-2.99,1.82-1.24,2.99-1.24,2.16.41,2.99,1.24c.82.83,1.24,1.82,1.24,2.99s-.41,2.16-1.24,2.99c-.83.82-1.82,1.24-2.99,1.24s-2.17-.41-2.99-1.24Zm0,10.57c-.83-.83-1.24-1.82-1.24-2.99s.41-2.17,1.24-2.99,1.82-1.24,2.99-1.24,2.16.41,2.99,1.24c.82.83,1.24,1.82,1.24,2.99s-.41,2.16-1.24,2.99c-.83.82-1.82,1.24-2.99,1.24s-2.17-.41-2.99-1.24Z"/><path class="cls-2" d="m111.73,340.84c-.82-.82-1.24-1.82-1.24-2.99s.41-2.16,1.24-2.99c.83-.82,1.82-1.24,2.99-1.24s2.17.41,2.99,1.24c.82.83,1.24,1.82,1.24,2.99s-.41,2.17-1.24,2.99-1.82,1.24-2.99,1.24-2.16-.41-2.99-1.24Zm0,10.57c-.82-.82-1.24-1.82-1.24-2.99s.41-2.16,1.24-2.99c.83-.82,1.82-1.24,2.99-1.24s2.17.41,2.99,1.24c.82.83,1.24,1.82,1.24,2.99s-.41,2.17-1.24,2.99-1.82,1.24-2.99,1.24-2.16-.41-2.99-1.24Zm0,10.54c-.82-.83-1.24-1.82-1.24-2.99s.41-2.14,1.24-2.96c.83-.82,1.82-1.24,2.99-1.24s2.17.41,2.99,1.24c.82.82,1.24,1.81,1.24,2.96s-.41,2.16-1.24,2.99c-.83.82-1.82,1.24-2.99,1.24s-2.16-.41-2.99-1.24Zm0,10.57c-.82-.83-1.24-1.82-1.24-2.99s.41-2.17,1.24-2.99c.83-.82,1.82-1.24,2.99-1.24s2.17.41,2.99,1.24c.82.83,1.24,1.82,1.24,2.99s-.41,2.16-1.24,2.99c-.83.82-1.82,1.24-2.99,1.24s-2.16-.41-2.99-1.24Zm0,10.57c-.82-.83-1.24-1.82-1.24-2.99s.41-2.17,1.24-2.99c.83-.82,1.82-1.24,2.99-1.24s2.17.41,2.99,1.24c.82.83,1.24,1.82,1.24,2.99s-.41,2.16-1.24,2.99c-.83.82-1.82,1.24-2.99,1.24s-2.16-.41-2.99-1.24Zm10.57-31.68c-.82-.82-1.24-1.82-1.24-2.99s.41-2.16,1.24-2.99c.83-.82,1.82-1.24,2.99-1.24s2.17.41,2.99,1.24c.82.83,1.24,1.82,1.24,2.99s-.41,2.17-1.24,2.99-1.82,1.24-2.99,1.24-2.16-.41-2.99-1.24Zm10.57,10.54c-.82-.83-1.24-1.82-1.24-2.99s.41-2.14,1.24-2.96c.83-.82,1.82-1.24,2.99-1.24s2.14.41,2.96,1.24,1.24,1.81,1.24,2.96-.41,2.16-1.24,2.99c-.82.82-1.81,1.24-2.96,1.24s-2.16-.41-2.99-1.24Zm10.54-10.54c-.83-.82-1.24-1.82-1.24-2.99s.41-2.16,1.24-2.99,1.82-1.24,2.99-1.24,2.16.41,2.99,1.24c.82.83,1.24,1.82,1.24,2.99s-.41,2.17-1.24,2.99-1.82,1.24-2.99,1.24-2.17-.41-2.99-1.24Zm10.57-10.57c-.83-.82-1.24-1.82-1.24-2.99s.41-2.16,1.24-2.99,1.82-1.24,2.99-1.24,2.16.41,2.99,1.24c.82.83,1.24,1.82,1.24,2.99s-.41,2.17-1.24,2.99-1.82,1.24-2.99,1.24-2.17-.41-2.99-1.24Zm0,10.57c-.83-.82-1.24-1.82-1.24-2.99s.41-2.16,1.24-2.99,1.82-1.24,2.99-1.24,2.16.41,2.99,1.24c.82.83,1.24,1.82,1.24,2.99s-.41,2.17-1.24,2.99-1.82,1.24-2.99,1.24-2.17-.41-2.99-1.24Zm0,10.54c-.83-.83-1.24-1.82-1.24-2.99s.41-2.14,1.24-2.96c.82-.82,1.82-1.24,2.99-1.24s2.16.41,2.99,1.24c.82.82,1.24,1.81,1.24,2.96s-.41,2.16-1.24,2.99c-.83.82-1.82,1.24-2.99,1.24s-2.17-.41-2.99-1.24Zm0,10.57c-.83-.83-1.24-1.82-1.24-2.99s.41-2.17,1.24-2.99,1.82-1.24,2.99-1.24,2.16.41,2.99,1.24c.82.83,1.24,1.82,1.24,2.99s-.41,2.16-1.24,2.99c-.83.82-1.82,1.24-2.99,1.24s-2.17-.41-2.99-1.24Zm0,10.57c-.83-.83-1.24-1.82-1.24-2.99s.41-2.17,1.24-2.99,1.82-1.24,2.99-1.24,2.16.41,2.99,1.24c.82.83,1.24,1.82,1.24,2.99s-.41,2.16-1.24,2.99c-.83.82-1.82,1.24-2.99,1.24s-2.17-.41-2.99-1.24Z"/><path class="cls-2" d="m175.06,340.84c-.82-.82-1.24-1.82-1.24-2.99s.41-2.16,1.24-2.99c.83-.82,1.82-1.24,2.99-1.24s2.17.41,2.99,1.24c.82.83,1.24,1.82,1.24,2.99s-.41,2.17-1.24,2.99-1.82,1.24-2.99,1.24-2.16-.41-2.99-1.24Zm0,10.57c-.82-.82-1.24-1.82-1.24-2.99s.41-2.16,1.24-2.99c.83-.82,1.82-1.24,2.99-1.24s2.17.41,2.99,1.24c.82.83,1.24,1.82,1.24,2.99s-.41,2.17-1.24,2.99-1.82,1.24-2.99,1.24-2.16-.41-2.99-1.24Zm0,10.54c-.82-.83-1.24-1.82-1.24-2.99s.41-2.14,1.24-2.96c.83-.82,1.82-1.24,2.99-1.24s2.17.41,2.99,1.24c.82.82,1.24,1.81,1.24,2.96s-.41,2.16-1.24,2.99c-.83.82-1.82,1.24-2.99,1.24s-2.16-.41-2.99-1.24Zm0,10.57c-.82-.83-1.24-1.82-1.24-2.99s.41-2.17,1.24-2.99c.83-.82,1.82-1.24,2.99-1.24s2.17.41,2.99,1.24c.82.83,1.24,1.82,1.24,2.99s-.41,2.16-1.24,2.99c-.83.82-1.82,1.24-2.99,1.24s-2.16-.41-2.99-1.24Zm0,10.57c-.82-.83-1.24-1.82-1.24-2.99s.41-2.17,1.24-2.99c.83-.82,1.82-1.24,2.99-1.24s2.17.41,2.99,1.24c.82.83,1.24,1.82,1.24,2.99s-.41,2.16-1.24,2.99c-.83.82-1.82,1.24-2.99,1.24s-2.16-.41-2.99-1.24Zm10.57-42.25c-.82-.82-1.24-1.82-1.24-2.99s.41-2.16,1.24-2.99c.83-.82,1.82-1.24,2.99-1.24s2.17.41,2.99,1.24c.82.83,1.24,1.82,1.24,2.99s-.41,2.17-1.24,2.99-1.82,1.24-2.99,1.24-2.16-.41-2.99-1.24Zm0,21.11c-.82-.83-1.24-1.82-1.24-2.99s.41-2.14,1.24-2.96c.83-.82,1.82-1.24,2.99-1.24s2.17.41,2.99,1.24c.82.82,1.24,1.81,1.24,2.96s-.41,2.16-1.24,2.99c-.83.82-1.82,1.24-2.99,1.24s-2.16-.41-2.99-1.24Zm10.57-21.11c-.82-.82-1.24-1.82-1.24-2.99s.41-2.16,1.24-2.99c.83-.82,1.82-1.24,2.99-1.24s2.14.41,2.96,1.24c.82.83,1.24,1.82,1.24,2.99s-.41,2.17-1.24,2.99c-.82.83-1.81,1.24-2.96,1.24s-2.16-.41-2.99-1.24Zm0,21.11c-.82-.83-1.24-1.82-1.24-2.99s.41-2.14,1.24-2.96c.83-.82,1.82-1.24,2.99-1.24s2.14.41,2.96,1.24,1.24,1.81,1.24,2.96-.41,2.16-1.24,2.99c-.82.82-1.81,1.24-2.96,1.24s-2.16-.41-2.99-1.24Zm10.54-21.11c-.83-.82-1.24-1.82-1.24-2.99s.41-2.16,1.24-2.99,1.82-1.24,2.99-1.24,2.16.41,2.99,1.24c.82.83,1.24,1.82,1.24,2.99s-.41,2.17-1.24,2.99-1.82,1.24-2.99,1.24-2.17-.41-2.99-1.24Zm0,21.11c-.83-.83-1.24-1.82-1.24-2.99s.41-2.14,1.24-2.96c.82-.82,1.82-1.24,2.99-1.24s2.16.41,2.99,1.24c.82.82,1.24,1.81,1.24,2.96s-.41,2.16-1.24,2.99c-.83.82-1.82,1.24-2.99,1.24s-2.17-.41-2.99-1.24Zm10.57-10.54c-.83-.82-1.24-1.82-1.24-2.99s.41-2.16,1.24-2.99,1.82-1.24,2.99-1.24,2.16.41,2.99,1.24c.82.83,1.24,1.82,1.24,2.99s-.41,2.17-1.24,2.99-1.82,1.24-2.99,1.24-2.17-.41-2.99-1.24Z"/><path class="cls-1" d="m238.4,340.84c-.82-.82-1.24-1.82-1.24-2.99s.41-2.16,1.24-2.99c.83-.82,1.82-1.24,2.99-1.24s2.17.41,2.99,1.24c.82.83,1.24,1.82,1.24,2.99s-.41,2.17-1.24,2.99-1.82,1.24-2.99,1.24-2.16-.41-2.99-1.24Zm0,10.57c-.82-.82-1.24-1.82-1.24-2.99s.41-2.16,1.24-2.99c.83-.82,1.82-1.24,2.99-1.24s2.17.41,2.99,1.24c.82.83,1.24,1.82,1.24,2.99s-.41,2.17-1.24,2.99-1.82,1.24-2.99,1.24-2.16-.41-2.99-1.24Zm0,10.54c-.82-.83-1.24-1.82-1.24-2.99s.41-2.14,1.24-2.96c.83-.82,1.82-1.24,2.99-1.24s2.17.41,2.99,1.24c.82.82,1.24,1.81,1.24,2.96s-.41,2.16-1.24,2.99c-.83.82-1.82,1.24-2.99,1.24s-2.16-.41-2.99-1.24Zm0,10.57c-.82-.83-1.24-1.82-1.24-2.99s.41-2.17,1.24-2.99c.83-.82,1.82-1.24,2.99-1.24s2.17.41,2.99,1.24c.82.83,1.24,1.82,1.24,2.99s-.41,2.16-1.24,2.99c-.83.82-1.82,1.24-2.99,1.24s-2.16-.41-2.99-1.24Zm0,10.57c-.82-.83-1.24-1.82-1.24-2.99s.41-2.17,1.24-2.99c.83-.82,1.82-1.24,2.99-1.24s2.17.41,2.99,1.24c.82.83,1.24,1.82,1.24,2.99s-.41,2.16-1.24,2.99c-.83.82-1.82,1.24-2.99,1.24s-2.16-.41-2.99-1.24Zm10.57-21.14c-.82-.83-1.24-1.82-1.24-2.99s.41-2.14,1.24-2.96c.83-.82,1.82-1.24,2.99-1.24s2.17.41,2.99,1.24c.82.82,1.24,1.81,1.24,2.96s-.41,2.16-1.24,2.99c-.83.82-1.82,1.24-2.99,1.24s-2.16-.41-2.99-1.24Zm10.57,0c-.82-.83-1.24-1.82-1.24-2.99s.41-2.14,1.24-2.96c.83-.82,1.82-1.24,2.99-1.24s2.14.41,2.96,1.24,1.24,1.81,1.24,2.96-.41,2.16-1.24,2.99c-.82.82-1.81,1.24-2.96,1.24s-2.16-.41-2.99-1.24Zm10.54,0c-.83-.83-1.24-1.82-1.24-2.99s.41-2.14,1.24-2.96c.82-.82,1.82-1.24,2.99-1.24s2.16.41,2.99,1.24c.82.82,1.24,1.81,1.24,2.96s-.41,2.16-1.24,2.99c-.83.82-1.82,1.24-2.99,1.24s-2.17-.41-2.99-1.24Zm10.57-21.11c-.83-.82-1.24-1.82-1.24-2.99s.41-2.16,1.24-2.99,1.82-1.24,2.99-1.24,2.16.41,2.99,1.24c.82.83,1.24,1.82,1.24,2.99s-.41,2.17-1.24,2.99-1.82,1.24-2.99,1.24-2.17-.41-2.99-1.24Zm0,10.57c-.83-.82-1.24-1.82-1.24-2.99s.41-2.16,1.24-2.99,1.82-1.24,2.99-1.24,2.16.41,2.99,1.24c.82.83,1.24,1.82,1.24,2.99s-.41,2.17-1.24,2.99-1.82,1.24-2.99,1.24-2.17-.41-2.99-1.24Zm0,10.54c-.83-.83-1.24-1.82-1.24-2.99s.41-2.14,1.24-2.96c.82-.82,1.82-1.24,2.99-1.24s2.16.41,2.99,1.24c.82.82,1.24,1.81,1.24,2.96s-.41,2.16-1.24,2.99c-.83.82-1.82,1.24-2.99,1.24s-2.17-.41-2.99-1.24Zm0,10.57c-.83-.83-1.24-1.82-1.24-2.99s.41-2.17,1.24-2.99,1.82-1.24,2.99-1.24,2.16.41,2.99,1.24c.82.83,1.24,1.82,1.24,2.99s-.41,2.16-1.24,2.99c-.83.82-1.82,1.24-2.99,1.24s-2.17-.41-2.99-1.24Zm0,10.57c-.83-.83-1.24-1.82-1.24-2.99s.41-2.17,1.24-2.99,1.82-1.24,2.99-1.24,2.16.41,2.99,1.24c.82.83,1.24,1.82,1.24,2.99s-.41,2.16-1.24,2.99c-.83.82-1.82,1.24-2.99,1.24s-2.17-.41-2.99-1.24Z"/><path class="cls-1" d="m301.74,351.41c-.82-.82-1.24-1.82-1.24-2.99s.41-2.16,1.24-2.99c.83-.82,1.82-1.24,2.99-1.24s2.17.41,2.99,1.24c.82.83,1.24,1.82,1.24,2.99s-.41,2.17-1.24,2.99-1.82,1.24-2.99,1.24-2.16-.41-2.99-1.24Zm0,10.54c-.82-.83-1.24-1.82-1.24-2.99s.41-2.14,1.24-2.96c.83-.82,1.82-1.24,2.99-1.24s2.17.41,2.99,1.24c.82.82,1.24,1.81,1.24,2.96s-.41,2.16-1.24,2.99c-.83.82-1.82,1.24-2.99,1.24s-2.16-.41-2.99-1.24Zm0,10.57c-.82-.83-1.24-1.82-1.24-2.99s.41-2.17,1.24-2.99c.83-.82,1.82-1.24,2.99-1.24s2.17.41,2.99,1.24c.82.83,1.24,1.82,1.24,2.99s-.41,2.16-1.24,2.99c-.83.82-1.82,1.24-2.99,1.24s-2.16-.41-2.99-1.24Zm10.57-31.68c-.82-.82-1.24-1.82-1.24-2.99s.41-2.16,1.24-2.99c.83-.82,1.82-1.24,2.99-1.24s2.17.41,2.99,1.24c.82.83,1.24,1.82,1.24,2.99s-.41,2.17-1.24,2.99-1.82,1.24-2.99,1.24-2.16-.41-2.99-1.24Zm0,42.25c-.82-.83-1.24-1.82-1.24-2.99s.41-2.17,1.24-2.99c.83-.82,1.82-1.24,2.99-1.24s2.17.41,2.99,1.24c.82.83,1.24,1.82,1.24,2.99s-.41,2.16-1.24,2.99c-.83.82-1.82,1.24-2.99,1.24s-2.16-.41-2.99-1.24Zm10.57-42.25c-.82-.82-1.24-1.82-1.24-2.99s.41-2.16,1.24-2.99c.83-.82,1.82-1.24,2.99-1.24s2.14.41,2.96,1.24c.82.83,1.24,1.82,1.24,2.99s-.41,2.17-1.24,2.99c-.82.83-1.81,1.24-2.96,1.24s-2.16-.41-2.99-1.24Zm0,42.25c-.82-.83-1.24-1.82-1.24-2.99s.41-2.17,1.24-2.99c.83-.82,1.82-1.24,2.99-1.24s2.14.41,2.96,1.24c.82.83,1.24,1.82,1.24,2.99s-.41,2.16-1.24,2.99c-.82.82-1.81,1.24-2.96,1.24s-2.16-.41-2.99-1.24Zm10.54-42.25c-.83-.82-1.24-1.82-1.24-2.99s.41-2.16,1.24-2.99,1.82-1.24,2.99-1.24,2.16.41,2.99,1.24c.82.83,1.24,1.82,1.24,2.99s-.41,2.17-1.24,2.99-1.82,1.24-2.99,1.24-2.17-.41-2.99-1.24Zm0,42.25c-.83-.83-1.24-1.82-1.24-2.99s.41-2.17,1.24-2.99,1.82-1.24,2.99-1.24,2.16.41,2.99,1.24c.82.83,1.24,1.82,1.24,2.99s-.41,2.16-1.24,2.99c-.83.82-1.82,1.24-2.99,1.24s-2.17-.41-2.99-1.24Zm10.57-31.68c-.83-.82-1.24-1.82-1.24-2.99s.41-2.16,1.24-2.99,1.82-1.24,2.99-1.24,2.16.41,2.99,1.24c.82.83,1.24,1.82,1.24,2.99s-.41,2.17-1.24,2.99-1.82,1.24-2.99,1.24-2.17-.41-2.99-1.24Zm0,10.54c-.83-.83-1.24-1.82-1.24-2.99s.41-2.14,1.24-2.96c.82-.82,1.82-1.24,2.99-1.24s2.16.41,2.99,1.24c.82.82,1.24,1.81,1.24,2.96s-.41,2.16-1.24,2.99c-.83.82-1.82,1.24-2.99,1.24s-2.17-.41-2.99-1.24Zm0,10.57c-.83-.83-1.24-1.82-1.24-2.99s.41-2.17,1.24-2.99,1.82-1.24,2.99-1.24,2.16.41,2.99,1.24c.82.83,1.24,1.82,1.24,2.99s-.41,2.16-1.24,2.99c-.83.82-1.82,1.24-2.99,1.24s-2.17-.41-2.99-1.24Z"/><path class="cls-1" d="m365.07,340.84c-.82-.82-1.24-1.82-1.24-2.99s.41-2.16,1.24-2.99c.83-.82,1.82-1.24,2.99-1.24s2.17.41,2.99,1.24c.82.83,1.24,1.82,1.24,2.99s-.41,2.17-1.24,2.99-1.82,1.24-2.99,1.24-2.16-.41-2.99-1.24Zm0,10.57c-.82-.82-1.24-1.82-1.24-2.99s.41-2.16,1.24-2.99c.83-.82,1.82-1.24,2.99-1.24s2.17.41,2.99,1.24c.82.83,1.24,1.82,1.24,2.99s-.41,2.17-1.24,2.99-1.82,1.24-2.99,1.24-2.16-.41-2.99-1.24Zm0,10.54c-.82-.83-1.24-1.82-1.24-2.99s.41-2.14,1.24-2.96c.83-.82,1.82-1.24,2.99-1.24s2.17.41,2.99,1.24c.82.82,1.24,1.81,1.24,2.96s-.41,2.16-1.24,2.99c-.83.82-1.82,1.24-2.99,1.24s-2.16-.41-2.99-1.24Zm0,10.57c-.82-.83-1.24-1.82-1.24-2.99s.41-2.17,1.24-2.99c.83-.82,1.82-1.24,2.99-1.24s2.17.41,2.99,1.24c.82.83,1.24,1.82,1.24,2.99s-.41,2.16-1.24,2.99c-.83.82-1.82,1.24-2.99,1.24s-2.16-.41-2.99-1.24Zm10.57,10.57c-.82-.83-1.24-1.82-1.24-2.99s.41-2.17,1.24-2.99c.83-.82,1.82-1.24,2.99-1.24s2.17.41,2.99,1.24c.82.83,1.24,1.82,1.24,2.99s-.41,2.16-1.24,2.99c-.83.82-1.82,1.24-2.99,1.24s-2.16-.41-2.99-1.24Zm10.57,0c-.82-.83-1.24-1.82-1.24-2.99s.41-2.17,1.24-2.99c.83-.82,1.82-1.24,2.99-1.24s2.14.41,2.96,1.24c.82.83,1.24,1.82,1.24,2.99s-.41,2.16-1.24,2.99c-.82.82-1.81,1.24-2.96,1.24s-2.16-.41-2.99-1.24Zm10.54,0c-.83-.83-1.24-1.82-1.24-2.99s.41-2.17,1.24-2.99,1.82-1.24,2.99-1.24,2.16.41,2.99,1.24c.82.83,1.24,1.82,1.24,2.99s-.41,2.16-1.24,2.99c-.83.82-1.82,1.24-2.99,1.24s-2.17-.41-2.99-1.24Zm10.57-42.25c-.83-.82-1.24-1.82-1.24-2.99s.41-2.16,1.24-2.99,1.82-1.24,2.99-1.24,2.16.41,2.99,1.24c.82.83,1.24,1.82,1.24,2.99s-.41,2.17-1.24,2.99-1.82,1.24-2.99,1.24-2.17-.41-2.99-1.24Zm0,10.57c-.83-.82-1.24-1.82-1.24-2.99s.41-2.16,1.24-2.99,1.82-1.24,2.99-1.24,2.16.41,2.99,1.24c.82.83,1.24,1.82,1.24,2.99s-.41,2.17-1.24,2.99-1.82,1.24-2.99,1.24-2.17-.41-2.99-1.24Zm0,10.54c-.83-.83-1.24-1.82-1.24-2.99s.41-2.14,1.24-2.96c.82-.82,1.82-1.24,2.99-1.24s2.16.41,2.99,1.24c.82.82,1.24,1.81,1.24,2.96s-.41,2.16-1.24,2.99c-.83.82-1.82,1.24-2.99,1.24s-2.17-.41-2.99-1.24Zm0,10.57c-.83-.83-1.24-1.82-1.24-2.99s.41-2.17,1.24-2.99,1.82-1.24,2.99-1.24,2.16.41,2.99,1.24c.82.83,1.24,1.82,1.24,2.99s-.41,2.16-1.24,2.99c-.83.82-1.82,1.24-2.99,1.24s-2.17-.41-2.99-1.24Z"/><path class="cls-1" d="m428.41,351.41c-.82-.82-1.24-1.82-1.24-2.99s.41-2.16,1.24-2.99c.83-.82,1.82-1.24,2.99-1.24s2.17.41,2.99,1.24c.82.83,1.24,1.82,1.24,2.99s-.41,2.17-1.24,2.99-1.82,1.24-2.99,1.24-2.16-.41-2.99-1.24Zm0,31.68c-.82-.83-1.24-1.82-1.24-2.99s.41-2.17,1.24-2.99c.83-.82,1.82-1.24,2.99-1.24s2.17.41,2.99,1.24c.82.83,1.24,1.82,1.24,2.99s-.41,2.16-1.24,2.99c-.83.82-1.82,1.24-2.99,1.24s-2.16-.41-2.99-1.24Zm10.57-42.25c-.82-.82-1.24-1.82-1.24-2.99s.41-2.16,1.24-2.99c.83-.82,1.82-1.24,2.99-1.24s2.17.41,2.99,1.24c.82.83,1.24,1.82,1.24,2.99s-.41,2.17-1.24,2.99-1.82,1.24-2.99,1.24-2.16-.41-2.99-1.24Zm0,21.11c-.82-.83-1.24-1.82-1.24-2.99s.41-2.14,1.24-2.96c.83-.82,1.82-1.24,2.99-1.24s2.17.41,2.99,1.24c.82.82,1.24,1.81,1.24,2.96s-.41,2.16-1.24,2.99c-.83.82-1.82,1.24-2.99,1.24s-2.16-.41-2.99-1.24Zm0,21.14c-.82-.83-1.24-1.82-1.24-2.99s.41-2.17,1.24-2.99c.83-.82,1.82-1.24,2.99-1.24s2.17.41,2.99,1.24c.82.83,1.24,1.82,1.24,2.99s-.41,2.16-1.24,2.99c-.83.82-1.82,1.24-2.99,1.24s-2.16-.41-2.99-1.24Zm10.57-42.25c-.82-.82-1.24-1.82-1.24-2.99s.41-2.16,1.24-2.99c.83-.82,1.82-1.24,2.99-1.24s2.14.41,2.96,1.24c.82.83,1.24,1.82,1.24,2.99s-.41,2.17-1.24,2.99c-.82.83-1.81,1.24-2.96,1.24s-2.16-.41-2.99-1.24Zm0,21.11c-.82-.83-1.24-1.82-1.24-2.99s.41-2.14,1.24-2.96c.83-.82,1.82-1.24,2.99-1.24s2.14.41,2.96,1.24,1.24,1.81,1.24,2.96-.41,2.16-1.24,2.99c-.82.82-1.81,1.24-2.96,1.24s-2.16-.41-2.99-1.24Zm0,21.14c-.82-.83-1.24-1.82-1.24-2.99s.41-2.17,1.24-2.99c.83-.82,1.82-1.24,2.99-1.24s2.14.41,2.96,1.24c.82.83,1.24,1.82,1.24,2.99s-.41,2.16-1.24,2.99c-.82.82-1.81,1.24-2.96,1.24s-2.16-.41-2.99-1.24Zm10.54-42.25c-.83-.82-1.24-1.82-1.24-2.99s.41-2.16,1.24-2.99,1.82-1.24,2.99-1.24,2.16.41,2.99,1.24c.82.83,1.24,1.82,1.24,2.99s-.41,2.17-1.24,2.99-1.82,1.24-2.99,1.24-2.17-.41-2.99-1.24Zm0,21.11c-.83-.83-1.24-1.82-1.24-2.99s.41-2.14,1.24-2.96c.82-.82,1.82-1.24,2.99-1.24s2.16.41,2.99,1.24c.82.82,1.24,1.81,1.24,2.96s-.41,2.16-1.24,2.99c-.83.82-1.82,1.24-2.99,1.24s-2.17-.41-2.99-1.24Zm0,21.14c-.83-.83-1.24-1.82-1.24-2.99s.41-2.17,1.24-2.99,1.82-1.24,2.99-1.24,2.16.41,2.99,1.24c.82.83,1.24,1.82,1.24,2.99s-.41,2.16-1.24,2.99c-.83.82-1.82,1.24-2.99,1.24s-2.17-.41-2.99-1.24Zm10.57-42.25c-.83-.82-1.24-1.82-1.24-2.99s.41-2.16,1.24-2.99,1.82-1.24,2.99-1.24,2.16.41,2.99,1.24c.82.83,1.24,1.82,1.24,2.99s-.41,2.17-1.24,2.99-1.82,1.24-2.99,1.24-2.17-.41-2.99-1.24Zm0,31.68c-.83-.83-1.24-1.82-1.24-2.99s.41-2.17,1.24-2.99,1.82-1.24,2.99-1.24,2.16.41,2.99,1.24c.82.83,1.24,1.82,1.24,2.99s-.41,2.16-1.24,2.99c-.83.82-1.82,1.24-2.99,1.24s-2.17-.41-2.99-1.24Z"/><path class="cls-1" d="m491.74,340.84c-.82-.82-1.24-1.82-1.24-2.99s.41-2.16,1.24-2.99c.83-.82,1.82-1.24,2.99-1.24s2.17.41,2.99,1.24c.82.83,1.24,1.82,1.24,2.99s-.41,2.17-1.24,2.99-1.82,1.24-2.99,1.24-2.16-.41-2.99-1.24Zm0,10.57c-.82-.82-1.24-1.82-1.24-2.99s.41-2.16,1.24-2.99c.83-.82,1.82-1.24,2.99-1.24s2.17.41,2.99,1.24c.82.83,1.24,1.82,1.24,2.99s-.41,2.17-1.24,2.99-1.82,1.24-2.99,1.24-2.16-.41-2.99-1.24Zm0,10.54c-.82-.83-1.24-1.82-1.24-2.99s.41-2.14,1.24-2.96c.83-.82,1.82-1.24,2.99-1.24s2.17.41,2.99,1.24c.82.82,1.24,1.81,1.24,2.96s-.41,2.16-1.24,2.99c-.83.82-1.82,1.24-2.99,1.24s-2.16-.41-2.99-1.24Zm0,10.57c-.82-.83-1.24-1.82-1.24-2.99s.41-2.17,1.24-2.99c.83-.82,1.82-1.24,2.99-1.24s2.17.41,2.99,1.24c.82.83,1.24,1.82,1.24,2.99s-.41,2.16-1.24,2.99c-.83.82-1.82,1.24-2.99,1.24s-2.16-.41-2.99-1.24Zm0,10.57c-.82-.83-1.24-1.82-1.24-2.99s.41-2.17,1.24-2.99c.83-.82,1.82-1.24,2.99-1.24s2.17.41,2.99,1.24c.82.83,1.24,1.82,1.24,2.99s-.41,2.16-1.24,2.99c-.83.82-1.82,1.24-2.99,1.24s-2.16-.41-2.99-1.24Zm10.57-42.25c-.82-.82-1.24-1.82-1.24-2.99s.41-2.16,1.24-2.99c.83-.82,1.82-1.24,2.99-1.24s2.17.41,2.99,1.24c.82.83,1.24,1.82,1.24,2.99s-.41,2.17-1.24,2.99-1.82,1.24-2.99,1.24-2.16-.41-2.99-1.24Zm0,21.11c-.82-.83-1.24-1.82-1.24-2.99s.41-2.14,1.24-2.96c.83-.82,1.82-1.24,2.99-1.24s2.17.41,2.99,1.24c.82.82,1.24,1.81,1.24,2.96s-.41,2.16-1.24,2.99c-.83.82-1.82,1.24-2.99,1.24s-2.16-.41-2.99-1.24Zm0,21.14c-.82-.83-1.24-1.82-1.24-2.99s.41-2.17,1.24-2.99c.83-.82,1.82-1.24,2.99-1.24s2.17.41,2.99,1.24c.82.83,1.24,1.82,1.24,2.99s-.41,2.16-1.24,2.99c-.83.82-1.82,1.24-2.99,1.24s-2.16-.41-2.99-1.24Zm10.57-42.25c-.82-.82-1.24-1.82-1.24-2.99s.41-2.16,1.24-2.99c.83-.82,1.82-1.24,2.99-1.24s2.14.41,2.96,1.24c.82.83,1.24,1.82,1.24,2.99s-.41,2.17-1.24,2.99c-.82.83-1.81,1.24-2.96,1.24s-2.16-.41-2.99-1.24Zm0,21.11c-.82-.83-1.24-1.82-1.24-2.99s.41-2.14,1.24-2.96c.83-.82,1.82-1.24,2.99-1.24s2.14.41,2.96,1.24,1.24,1.81,1.24,2.96-.41,2.16-1.24,2.99c-.82.82-1.81,1.24-2.96,1.24s-2.16-.41-2.99-1.24Zm0,21.14c-.82-.83-1.24-1.82-1.24-2.99s.41-2.17,1.24-2.99c.83-.82,1.82-1.24,2.99-1.24s2.14.41,2.96,1.24c.82.83,1.24,1.82,1.24,2.99s-.41,2.16-1.24,2.99c-.82.82-1.81,1.24-2.96,1.24s-2.16-.41-2.99-1.24Zm10.54-42.25c-.83-.82-1.24-1.82-1.24-2.99s.41-2.16,1.24-2.99,1.82-1.24,2.99-1.24,2.16.41,2.99,1.24c.82.83,1.24,1.82,1.24,2.99s-.41,2.17-1.24,2.99-1.82,1.24-2.99,1.24-2.17-.41-2.99-1.24Zm0,42.25c-.83-.83-1.24-1.82-1.24-2.99s.41-2.17,1.24-2.99,1.82-1.24,2.99-1.24,2.16.41,2.99,1.24c.82.83,1.24,1.82,1.24,2.99s-.41,2.16-1.24,2.99c-.83.82-1.82,1.24-2.99,1.24s-2.17-.41-2.99-1.24Zm10.57-42.25c-.83-.82-1.24-1.82-1.24-2.99s.41-2.16,1.24-2.99,1.82-1.24,2.99-1.24,2.16.41,2.99,1.24c.82.83,1.24,1.82,1.24,2.99s-.41,2.17-1.24,2.99-1.82,1.24-2.99,1.24-2.17-.41-2.99-1.24Zm0,42.25c-.83-.83-1.24-1.82-1.24-2.99s.41-2.17,1.24-2.99,1.82-1.24,2.99-1.24,2.16.41,2.99,1.24c.82.83,1.24,1.82,1.24,2.99s-.41,2.16-1.24,2.99c-.83.82-1.82,1.24-2.99,1.24s-2.17-.41-2.99-1.24Z"/><path class="cls-1" d="m555.08,383.09c-.82-.83-1.24-1.82-1.24-2.99s.41-2.17,1.24-2.99c.83-.82,1.82-1.24,2.99-1.24s2.17.41,2.99,1.24c.82.83,1.24,1.82,1.24,2.99s-.41,2.16-1.24,2.99c-.83.82-1.82,1.24-2.99,1.24s-2.16-.41-2.99-1.24Z"/><path class="cls-1" d="m576.71,340.84c-.82-.82-1.24-1.82-1.24-2.99s.41-2.16,1.24-2.99c.83-.82,1.82-1.24,2.99-1.24s2.17.41,2.99,1.24c.82.83,1.24,1.82,1.24,2.99s-.41,2.17-1.24,2.99-1.82,1.24-2.99,1.24-2.16-.41-2.99-1.24Zm0,10.57c-.82-.82-1.24-1.82-1.24-2.99s.41-2.16,1.24-2.99c.83-.82,1.82-1.24,2.99-1.24s2.17.41,2.99,1.24c.82.83,1.24,1.82,1.24,2.99s-.41,2.17-1.24,2.99-1.82,1.24-2.99,1.24-2.16-.41-2.99-1.24Zm0,10.54c-.82-.83-1.24-1.82-1.24-2.99s.41-2.14,1.24-2.96c.83-.82,1.82-1.24,2.99-1.24s2.17.41,2.99,1.24c.82.82,1.24,1.81,1.24,2.96s-.41,2.16-1.24,2.99c-.83.82-1.82,1.24-2.99,1.24s-2.16-.41-2.99-1.24Zm0,10.57c-.82-.83-1.24-1.82-1.24-2.99s.41-2.17,1.24-2.99c.83-.82,1.82-1.24,2.99-1.24s2.17.41,2.99,1.24c.82.83,1.24,1.82,1.24,2.99s-.41,2.16-1.24,2.99c-.83.82-1.82,1.24-2.99,1.24s-2.16-.41-2.99-1.24Zm0,10.57c-.82-.83-1.24-1.82-1.24-2.99s.41-2.17,1.24-2.99c.83-.82,1.82-1.24,2.99-1.24s2.17.41,2.99,1.24c.82.83,1.24,1.82,1.24,2.99s-.41,2.16-1.24,2.99c-.83.82-1.82,1.24-2.99,1.24s-2.16-.41-2.99-1.24Zm10.57-31.68c-.82-.82-1.24-1.82-1.24-2.99s.41-2.16,1.24-2.99c.83-.82,1.82-1.24,2.99-1.24s2.17.41,2.99,1.24c.82.83,1.24,1.82,1.24,2.99s-.41,2.17-1.24,2.99-1.82,1.24-2.99,1.24-2.16-.41-2.99-1.24Zm10.57,10.54c-.82-.83-1.24-1.82-1.24-2.99s.41-2.14,1.24-2.96c.83-.82,1.82-1.24,2.99-1.24s2.14.41,2.96,1.24,1.24,1.81,1.24,2.96-.41,2.16-1.24,2.99c-.82.82-1.81,1.24-2.96,1.24s-2.16-.41-2.99-1.24Zm10.54,10.57c-.83-.83-1.24-1.82-1.24-2.99s.41-2.17,1.24-2.99,1.82-1.24,2.99-1.24,2.16.41,2.99,1.24c.82.83,1.24,1.82,1.24,2.99s-.41,2.16-1.24,2.99c-.83.82-1.82,1.24-2.99,1.24s-2.17-.41-2.99-1.24Zm10.57-31.68c-.83-.82-1.24-1.82-1.24-2.99s.41-2.16,1.24-2.99,1.82-1.24,2.99-1.24,2.16.41,2.99,1.24c.82.83,1.24,1.82,1.24,2.99s-.41,2.17-1.24,2.99-1.82,1.24-2.99,1.24-2.17-.41-2.99-1.24Zm0,10.57c-.83-.82-1.24-1.82-1.24-2.99s.41-2.16,1.24-2.99,1.82-1.24,2.99-1.24,2.16.41,2.99,1.24c.82.83,1.24,1.82,1.24,2.99s-.41,2.17-1.24,2.99-1.82,1.24-2.99,1.24-2.17-.41-2.99-1.24Zm0,10.54c-.83-.83-1.24-1.82-1.24-2.99s.41-2.14,1.24-2.96c.82-.82,1.82-1.24,2.99-1.24s2.16.41,2.99,1.24c.82.82,1.24,1.81,1.24,2.96s-.41,2.16-1.24,2.99c-.83.82-1.82,1.24-2.99,1.24s-2.17-.41-2.99-1.24Zm0,10.57c-.83-.83-1.24-1.82-1.24-2.99s.41-2.17,1.24-2.99,1.82-1.24,2.99-1.24,2.16.41,2.99,1.24c.82.83,1.24,1.82,1.24,2.99s-.41,2.16-1.24,2.99c-.83.82-1.82,1.24-2.99,1.24s-2.17-.41-2.99-1.24Zm0,10.57c-.83-.83-1.24-1.82-1.24-2.99s.41-2.17,1.24-2.99,1.82-1.24,2.99-1.24,2.16.41,2.99,1.24c.82.83,1.24,1.82,1.24,2.99s-.41,2.16-1.24,2.99c-.83.82-1.82,1.24-2.99,1.24s-2.17-.41-2.99-1.24Z"/><path class="cls-1" d="m640.04,340.84c-.82-.82-1.24-1.82-1.24-2.99s.41-2.16,1.24-2.99c.83-.82,1.82-1.24,2.99-1.24s2.17.41,2.99,1.24c.82.83,1.24,1.82,1.24,2.99s-.41,2.17-1.24,2.99-1.82,1.24-2.99,1.24-2.16-.41-2.99-1.24Zm0,10.57c-.82-.82-1.24-1.82-1.24-2.99s.41-2.16,1.24-2.99c.83-.82,1.82-1.24,2.99-1.24s2.17.41,2.99,1.24c.82.83,1.24,1.82,1.24,2.99s-.41,2.17-1.24,2.99-1.82,1.24-2.99,1.24-2.16-.41-2.99-1.24Zm0,10.54c-.82-.83-1.24-1.82-1.24-2.99s.41-2.14,1.24-2.96c.83-.82,1.82-1.24,2.99-1.24s2.17.41,2.99,1.24c.82.82,1.24,1.81,1.24,2.96s-.41,2.16-1.24,2.99c-.83.82-1.82,1.24-2.99,1.24s-2.16-.41-2.99-1.24Zm0,10.57c-.82-.83-1.24-1.82-1.24-2.99s.41-2.17,1.24-2.99c.83-.82,1.82-1.24,2.99-1.24s2.17.41,2.99,1.24c.82.83,1.24,1.82,1.24,2.99s-.41,2.16-1.24,2.99c-.83.82-1.82,1.24-2.99,1.24s-2.16-.41-2.99-1.24Zm0,10.57c-.82-.83-1.24-1.82-1.24-2.99s.41-2.17,1.24-2.99c.83-.82,1.82-1.24,2.99-1.24s2.17.41,2.99,1.24c.82.83,1.24,1.82,1.24,2.99s-.41,2.16-1.24,2.99c-.83.82-1.82,1.24-2.99,1.24s-2.16-.41-2.99-1.24Zm10.57-42.25c-.82-.82-1.24-1.82-1.24-2.99s.41-2.16,1.24-2.99c.83-.82,1.82-1.24,2.99-1.24s2.17.41,2.99,1.24c.82.83,1.24,1.82,1.24,2.99s-.41,2.17-1.24,2.99-1.82,1.24-2.99,1.24-2.16-.41-2.99-1.24Zm0,21.11c-.82-.83-1.24-1.82-1.24-2.99s.41-2.14,1.24-2.96c.83-.82,1.82-1.24,2.99-1.24s2.17.41,2.99,1.24c.82.82,1.24,1.81,1.24,2.96s-.41,2.16-1.24,2.99c-.83.82-1.82,1.24-2.99,1.24s-2.16-.41-2.99-1.24Zm0,21.14c-.82-.83-1.24-1.82-1.24-2.99s.41-2.17,1.24-2.99c.83-.82,1.82-1.24,2.99-1.24s2.17.41,2.99,1.24c.82.83,1.24,1.82,1.24,2.99s-.41,2.16-1.24,2.99c-.83.82-1.82,1.24-2.99,1.24s-2.16-.41-2.99-1.24Zm10.57-42.25c-.82-.82-1.24-1.82-1.24-2.99s.41-2.16,1.24-2.99c.83-.82,1.82-1.24,2.99-1.24s2.14.41,2.96,1.24c.82.83,1.24,1.82,1.24,2.99s-.41,2.17-1.24,2.99c-.82.83-1.81,1.24-2.96,1.24s-2.16-.41-2.99-1.24Zm0,21.11c-.82-.83-1.24-1.82-1.24-2.99s.41-2.14,1.24-2.96c.83-.82,1.82-1.24,2.99-1.24s2.14.41,2.96,1.24,1.24,1.81,1.24,2.96-.41,2.16-1.24,2.99c-.82.82-1.81,1.24-2.96,1.24s-2.16-.41-2.99-1.24Zm0,21.14c-.82-.83-1.24-1.82-1.24-2.99s.41-2.17,1.24-2.99c.83-.82,1.82-1.24,2.99-1.24s2.14.41,2.96,1.24c.82.83,1.24,1.82,1.24,2.99s-.41,2.16-1.24,2.99c-.82.82-1.81,1.24-2.96,1.24s-2.16-.41-2.99-1.24Zm10.54-42.25c-.83-.82-1.24-1.82-1.24-2.99s.41-2.16,1.24-2.99,1.82-1.24,2.99-1.24,2.16.41,2.99,1.24c.82.83,1.24,1.82,1.24,2.99s-.41,2.17-1.24,2.99-1.82,1.24-2.99,1.24-2.17-.41-2.99-1.24Zm0,42.25c-.83-.83-1.24-1.82-1.24-2.99s.41-2.17,1.24-2.99,1.82-1.24,2.99-1.24,2.16.41,2.99,1.24c.82.83,1.24,1.82,1.24,2.99s-.41,2.16-1.24,2.99c-.83.82-1.82,1.24-2.99,1.24s-2.17-.41-2.99-1.24Zm10.57-42.25c-.83-.82-1.24-1.82-1.24-2.99s.41-2.16,1.24-2.99,1.82-1.24,2.99-1.24,2.16.41,2.99,1.24c.82.83,1.24,1.82,1.24,2.99s-.41,2.17-1.24,2.99-1.82,1.24-2.99,1.24-2.17-.41-2.99-1.24Zm0,42.25c-.83-.83-1.24-1.82-1.24-2.99s.41-2.17,1.24-2.99,1.82-1.24,2.99-1.24,2.16.41,2.99,1.24c.82.83,1.24,1.82,1.24,2.99s-.41,2.16-1.24,2.99c-.83.82-1.82,1.24-2.99,1.24s-2.17-.41-2.99-1.24Z"/><path class="cls-1" d="m703.38,340.84c-.82-.82-1.24-1.82-1.24-2.99s.41-2.16,1.24-2.99c.83-.82,1.82-1.24,2.99-1.24s2.17.41,2.99,1.24c.82.83,1.24,1.82,1.24,2.99s-.41,2.17-1.24,2.99-1.82,1.24-2.99,1.24-2.16-.41-2.99-1.24Zm10.57,0c-.82-.82-1.24-1.82-1.24-2.99s.41-2.16,1.24-2.99c.83-.82,1.82-1.24,2.99-1.24s2.17.41,2.99,1.24c.82.83,1.24,1.82,1.24,2.99s-.41,2.17-1.24,2.99-1.82,1.24-2.99,1.24-2.16-.41-2.99-1.24Zm10.57,0c-.82-.82-1.24-1.82-1.24-2.99s.41-2.16,1.24-2.99c.83-.82,1.82-1.24,2.99-1.24s2.14.41,2.96,1.24c.82.83,1.24,1.82,1.24,2.99s-.41,2.17-1.24,2.99c-.82.83-1.81,1.24-2.96,1.24s-2.16-.41-2.99-1.24Zm0,10.57c-.82-.82-1.24-1.82-1.24-2.99s.41-2.16,1.24-2.99c.83-.82,1.82-1.24,2.99-1.24s2.14.41,2.96,1.24c.82.83,1.24,1.82,1.24,2.99s-.41,2.17-1.24,2.99c-.82.83-1.81,1.24-2.96,1.24s-2.16-.41-2.99-1.24Zm0,10.54c-.82-.83-1.24-1.82-1.24-2.99s.41-2.14,1.24-2.96c.83-.82,1.82-1.24,2.99-1.24s2.14.41,2.96,1.24,1.24,1.81,1.24,2.96-.41,2.16-1.24,2.99c-.82.82-1.81,1.24-2.96,1.24s-2.16-.41-2.99-1.24Zm0,10.57c-.82-.83-1.24-1.82-1.24-2.99s.41-2.17,1.24-2.99c.83-.82,1.82-1.24,2.99-1.24s2.14.41,2.96,1.24c.82.83,1.24,1.82,1.24,2.99s-.41,2.16-1.24,2.99c-.82.82-1.81,1.24-2.96,1.24s-2.16-.41-2.99-1.24Zm0,10.57c-.82-.83-1.24-1.82-1.24-2.99s.41-2.17,1.24-2.99c.83-.82,1.82-1.24,2.99-1.24s2.14.41,2.96,1.24c.82.83,1.24,1.82,1.24,2.99s-.41,2.16-1.24,2.99c-.82.82-1.81,1.24-2.96,1.24s-2.16-.41-2.99-1.24Zm10.54-42.25c-.83-.82-1.24-1.82-1.24-2.99s.41-2.16,1.24-2.99,1.82-1.24,2.99-1.24,2.16.41,2.99,1.24c.82.83,1.24,1.82,1.24,2.99s-.41,2.17-1.24,2.99-1.82,1.24-2.99,1.24-2.17-.41-2.99-1.24Zm10.57,0c-.83-.82-1.24-1.82-1.24-2.99s.41-2.16,1.24-2.99,1.82-1.24,2.99-1.24,2.16.41,2.99,1.24c.82.83,1.24,1.82,1.24,2.99s-.41,2.17-1.24,2.99-1.82,1.24-2.99,1.24-2.17-.41-2.99-1.24Z"/></g></svg>